<?xml version="1.0" encoding="UTF-8" standalone="no"?>
<svg
   xmlns:dc="http://purl.org/dc/elements/1.1/"
   xmlns:cc="http://creativecommons.org/ns#"
   xmlns:rdf="http://www.w3.org/1999/02/22-rdf-syntax-ns#"
   xmlns:svg="http://www.w3.org/2000/svg"
   xmlns="http://www.w3.org/2000/svg"
   xmlns:sodipodi="http://sodipodi.sourceforge.net/DTD/sodipodi-0.dtd"
   xmlns:inkscape="http://www.inkscape.org/namespaces/inkscape"
   inkscape:version="1.0beta2 (unknown)"
   height="158.60001"
   width="519.84998"
   sodipodi:docname="red-hat-ansible-network-automation-vector-logo.svg"
   xml:space="preserve"
   viewBox="0 0 519.84998 158.60001"
   y="0px"
   x="0px"
   id="layer"
   version="1.1"><metadata
   id="metadata79"><rdf:RDF><cc:Work
       rdf:about=""><dc:format>image/svg+xml</dc:format><dc:type
         rdf:resource="http://purl.org/dc/dcmitype/StillImage" /></cc:Work></rdf:RDF></metadata><defs
   id="defs77">
	
	
	
	
	
	
	
	
	
	
	
	
	
	
	
	
	
	
	
	
	
	
	
	
	
	
	
	
	
	
	
	
	
	
</defs><sodipodi:namedview
   inkscape:current-layer="layer"
   inkscape:window-maximized="1"
   inkscape:window-y="25"
   inkscape:window-x="0"
   inkscape:cy="83.7"
   inkscape:cx="305.2"
   inkscape:zoom="0.91871166"
   showgrid="false"
   id="namedview75"
   inkscape:window-height="1005"
   inkscape:window-width="1920"
   inkscape:pageshadow="2"
   inkscape:pageopacity="0"
   guidetolerance="10"
   gridtolerance="10"
   objecttolerance="10"
   borderopacity="1"
   inkscape:document-rotation="0"
   bordercolor="#666666"
   pagecolor="#ffffff" />
<style
   id="style2"
   type="text/css">
	.st0{fill:#CC0000;}
	.st1{fill:#FFFFFF;}
</style>
<g
   transform="translate(-20.8,-242.3)"
   id="g132"><path
     inkscape:connector-curvature="0"
     id="path4"
     d="m 179.4,321.6 c 0,43.8 -35.5,79.3 -79.3,79.3 -43.8,0 -79.3,-35.5 -79.3,-79.3 0,-43.8 35.5,-79.3 79.3,-79.3 0,0 0,0 0,0 43.8,0 79.3,35.5 79.3,79.3"
     class="st0" /><path
     inkscape:connector-curvature="0"
     id="path6"
     d="m 137.9,354.2 -31.6,-75.9 c -0.8,-2.1 -2.7,-3.4 -4.9,-3.4 -2.2,-0.1 -4.2,1.3 -5,3.4 l -34.6,83.3 h 11.8 l 13.7,-34.3 40.9,33.1 c 1.6,1.4 2.8,1.9 4.4,1.9 3.1,0.1 5.7,-2.4 5.8,-5.5 0,0 0,-0.1 0,-0.1 0,-1 -0.2,-1.8 -0.5,-2.5 M 101.5,291.9 122,342.5 91,318.1 Z"
     class="st1" /><path
     inkscape:connector-curvature="0"
     id="path8"
     d="m 217.6,305.7 -6.5,-13.4 h -4.5 v 13.4 H 195.9 V 266 h 17.7 c 2.1,0 4.2,0.2 6.3,0.7 1.8,0.4 3.4,1.2 4.9,2.2 1.4,1 2.5,2.4 3.1,4 0.8,1.9 1.2,3.9 1.1,6 0.1,2.6 -0.6,5.1 -1.9,7.3 -1.3,1.9 -3.1,3.4 -5.2,4.3 l 8.1,15.1 h -12.4 z m -0.5,-29.5 c -1,-0.9 -2.4,-1.3 -3.7,-1.2 h -6.7 v 8.7 h 6.5 c 1.4,0.1 2.8,-0.3 3.9,-1.1 0.8,-0.9 1.2,-2.1 1.2,-3.3 0,-1.1 -0.5,-2.2 -1.2,-3.1 z" /><path
     inkscape:connector-curvature="0"
     id="path10"
     d="M 238.2,305.7 V 266 h 30.4 v 9.3 h -19.5 v 5.3 h 11.8 v 9.1 h -11.8 v 6.8 H 269 v 9.2 z" /><path
     inkscape:connector-curvature="0"
     id="path12"
     d="m 310.6,295.1 c -0.8,2.4 -2.2,4.5 -4.1,6.2 -1.9,1.6 -4.2,2.8 -6.7,3.4 -3,0.7 -6.1,1.1 -9.3,1 H 277.6 V 266 h 13.9 c 2.8,0 5.7,0.3 8.4,1 2.4,0.5 4.6,1.7 6.5,3.2 1.8,1.7 3.2,3.7 4.1,6.1 1,3 1.5,6.2 1.4,9.4 0.1,3.3 -0.3,6.4 -1.3,9.4 z m -10.4,-13.9 c -0.3,-1.2 -0.8,-2.3 -1.6,-3.2 -0.8,-0.8 -1.7,-1.5 -2.8,-1.8 -1.4,-0.4 -2.9,-0.6 -4.4,-0.6 h -2.7 v 20.8 h 2.4 c 1.5,0 2.9,-0.2 4.4,-0.5 1.1,-0.3 2.2,-0.9 3,-1.7 0.8,-0.9 1.4,-2 1.7,-3.2 0.4,-1.6 0.5,-3.3 0.5,-5 -0.1,-1.7 -0.2,-3.3 -0.5,-4.8 z" /><path
     inkscape:connector-curvature="0"
     id="path14"
     d="M 364.3,305.7 V 290.1 H 352 v 15.6 H 340.8 V 266 H 352 v 14.4 h 12.3 V 266 h 11.2 v 39.7 z" /><path
     inkscape:connector-curvature="0"
     id="path16"
     d="m 410.8,305.7 -2.1,-7.1 h -11.8 l -2.2,7.1 H 382.9 L 397.3,266 h 11.1 l 14.4,39.7 z m -5.5,-18.3 -0.9,-3.3 -0.7,-2.5 c -0.2,-0.8 -0.4,-1.5 -0.5,-2.1 -0.2,-0.6 -0.3,-1.3 -0.4,-1.9 -0.1,0.7 -0.3,1.3 -0.4,2 -0.1,0.6 -0.3,1.3 -0.5,2.1 l -0.7,2.6 c -0.3,0.9 -0.6,2 -0.9,3.3 l -0.8,2.6 h 6.6 z" /><path
     inkscape:connector-curvature="0"
     id="path18"
     d="m 445.2,275.7 v 30.1 h -11 v -30.1 h -11.1 v -9.6 h 33.2 v 9.6 z" /><path
     inkscape:connector-curvature="0"
     id="path20"
     d="m 471,272.9 c -0.2,0.6 -0.6,1.2 -1.1,1.6 -0.5,0.5 -1,0.8 -1.6,1.1 -1.3,0.5 -2.8,0.5 -4.1,0 -0.6,-0.3 -1.1,-0.6 -1.6,-1.1 -0.5,-0.5 -0.8,-1 -1.1,-1.6 -0.3,-0.6 -0.4,-1.3 -0.4,-2 0,-0.7 0.1,-1.4 0.4,-2 0.2,-0.6 0.6,-1.2 1.1,-1.6 0.5,-0.5 1,-0.9 1.6,-1.1 1.3,-0.5 2.8,-0.5 4.1,0 0.6,0.3 1.2,0.6 1.6,1.1 0.5,0.5 0.8,1 1.1,1.6 0.5,1.3 0.5,2.8 0,4 z m -0.8,-3.7 c -0.2,-0.5 -0.5,-1 -0.9,-1.4 -0.4,-0.4 -0.9,-0.7 -1.4,-0.9 -1.1,-0.4 -2.3,-0.4 -3.4,0 -0.5,0.2 -1,0.5 -1.4,0.9 -0.4,0.4 -0.7,0.9 -0.9,1.4 -0.4,1.1 -0.4,2.3 0,3.4 0.2,0.5 0.5,1 0.9,1.4 1.7,1.6 4.4,1.6 6.1,0 0.4,-0.4 0.7,-0.8 0.9,-1.3 0.6,-1.1 0.6,-2.3 0.1,-3.5 z m -1.9,1.6 c -0.2,0.3 -0.5,0.5 -0.9,0.6 l 1.2,2.4 h -1.1 l -1.1,-2.1 h -1.1 v 2.1 h -0.9 V 268 h 2.4 c 0.2,0 0.5,0 0.7,0 0.2,0.1 0.4,0.2 0.6,0.3 0.2,0.1 0.3,0.3 0.4,0.5 0.1,0.2 0.2,0.5 0.2,0.8 -0.1,0.4 -0.2,0.8 -0.4,1.2 z m -0.9,-1.7 c -0.2,-0.1 -0.4,-0.2 -0.6,-0.2 h -1.5 v 1.6 h 1.5 c 0.2,0 0.5,-0.1 0.6,-0.2 0.2,-0.1 0.3,-0.4 0.2,-0.6 0.1,-0.2 0,-0.4 -0.2,-0.6 z" /><path
     inkscape:connector-curvature="0"
     id="path22"
     d="m 234.2,376.6 -5.1,-15.1 h -24.6 l -5.2,15.1 h -6.7 l 20.7,-59.5 h 7.4 l 20.6,59.5 z m -13.6,-40.7 c -0.4,-1 -0.7,-2 -1.1,-3.1 -0.4,-1.1 -0.7,-2.2 -1.1,-3.3 -0.4,-1.1 -0.6,-2 -0.9,-3 -0.3,-0.9 -0.5,-1.7 -0.6,-2.4 -0.2,0.6 -0.4,1.4 -0.6,2.4 -0.2,1 -0.5,1.9 -0.9,3 -0.4,1 -0.7,2.2 -1.1,3.4 -0.4,1.2 -0.8,2.2 -1.1,3.2 l -6.6,19.4 h 20.5 z" /><path
     inkscape:connector-curvature="0"
     id="path24"
     d="m 290.2,376.6 -26,-40.7 c -0.4,-0.5 -0.7,-1.1 -1.1,-1.8 -0.4,-0.7 -0.8,-1.4 -1.2,-2.1 -0.4,-0.7 -0.8,-1.4 -1.2,-2 -0.3,-0.5 -0.6,-1 -0.8,-1.5 v 48.2 h -6.3 v -59.5 h 6.5 l 25.6,41.5 c 0.3,0.5 0.7,1.1 1.1,1.8 l 1.2,2.1 c 0.4,0.7 0.8,1.4 1.2,2 0.3,0.5 0.6,1 0.8,1.5 v -49 h 6.5 v 59.5 z" /><path
     inkscape:connector-curvature="0"
     id="path26"
     d="m 347.2,367.5 c -0.9,2 -2.2,3.8 -3.9,5.3 -1.8,1.6 -3.9,2.8 -6.2,3.6 -2.7,0.9 -5.5,1.3 -8.3,1.3 -3.9,0 -7.7,-0.8 -11.3,-2.4 -3.2,-1.4 -6.2,-3.4 -8.7,-5.9 l 4.4,-4.9 c 2.2,2.1 4.6,3.8 7.3,5.2 2.6,1.3 5.6,2 8.5,1.9 3.4,0.2 6.7,-0.8 9.4,-2.7 2.3,-1.8 3.6,-4.6 3.4,-7.5 0,-1.3 -0.2,-2.5 -0.6,-3.7 -0.5,-1.2 -1.3,-2.3 -2.4,-3.1 -1.3,-1.1 -2.8,-2.1 -4.4,-2.9 -2.2,-1.1 -4.5,-2 -6.8,-2.8 -2.8,-1 -5.5,-2.1 -8.1,-3.4 -1.9,-1 -3.7,-2.2 -5.3,-3.8 -1.3,-1.3 -2.3,-2.8 -2.9,-4.5 -0.6,-1.8 -0.9,-3.8 -0.9,-5.7 0,-2.2 0.4,-4.4 1.4,-6.4 0.9,-1.8 2.2,-3.4 3.8,-4.7 1.7,-1.4 3.7,-2.4 5.9,-3 2.5,-0.7 5,-1 7.6,-1 3.5,-0.1 6.9,0.5 10.2,1.7 2.9,1.2 5.5,2.8 7.9,4.7 L 343,328 c -1.9,-1.7 -4.1,-3.1 -6.5,-4.1 -2.5,-1 -5.1,-1.5 -7.8,-1.4 -1.8,0 -3.6,0.2 -5.3,0.8 -1.3,0.4 -2.6,1.1 -3.6,1.9 -0.9,0.7 -1.6,1.7 -2,2.8 -0.4,1.1 -0.7,2.2 -0.6,3.4 0,1.1 0.1,2.3 0.5,3.4 0.4,1.1 1.2,2.1 2.1,2.9 1.3,1.1 2.7,2 4.3,2.8 2.4,1.1 4.8,2.1 7.3,3 2.8,1 5.6,2.2 8.3,3.6 1.9,0.9 3.7,2.2 5.3,3.7 1.3,1.3 2.2,3 2.8,4.7 0.6,1.9 0.9,3.9 0.8,5.9 0,1.8 -0.5,4 -1.4,6.1 z" /><path
     inkscape:connector-curvature="0"
     id="path28"
     d="m 362.8,376.6 v -59.5 h 6.6 v 59.5 z" /><path
     inkscape:connector-curvature="0"
     id="path30"
     d="m 421.3,372.2 c -3.3,2.9 -8.1,4.4 -14.4,4.4 h -21.2 v -59.5 h 21.5 c 2.2,0 4.4,0.3 6.5,0.9 1.9,0.5 3.7,1.5 5.3,2.7 1.5,1.3 2.6,2.9 3.4,4.7 0.8,2.1 1.2,4.4 1.2,6.6 0.2,2.8 -0.7,5.6 -2.4,7.9 -1.6,2 -3.8,3.5 -6.2,4.3 1.4,0.3 2.7,0.8 4,1.5 1.4,0.7 2.6,1.7 3.7,2.8 1.1,1.2 2,2.7 2.6,4.3 0.7,2 1.1,4.1 1,6.2 -0.1,5.8 -1.8,10.3 -5,13.2 z m -6.8,-46.6 c -2,-1.8 -4.7,-2.8 -7.4,-2.5 h -14.9 v 18.4 h 14.4 c 2.9,0.3 5.8,-0.7 7.9,-2.7 1.6,-1.8 2.4,-4.2 2.4,-6.6 0,-2.5 -0.9,-4.8 -2.4,-6.6 z m 1.7,25.1 c -2.6,-2.1 -5.9,-3.2 -9.3,-3 h -14.8 v 22.9 H 407 c 4.5,0 7.7,-1 9.4,-3.1 2,-2.2 3,-5.2 2.8,-8.1 0.4,-3.3 -0.8,-6.5 -3,-8.7 z" /><path
     inkscape:connector-curvature="0"
     id="path32"
     d="m 438.7,376.6 v -59.5 h 6.6 v 53.5 h 29.4 v 6 z" /><path
     inkscape:connector-curvature="0"
     id="path34"
     d="m 487.5,376.6 v -59.5 h 36 v 6 h -29.3 v 18.7 h 17 v 6 h -17 v 22.7 h 30.7 v 6 z" /><path
     inkscape:connector-curvature="0"
     id="path36"
     d="m 540.2,324.1 c -0.2,0.6 -0.6,1.2 -1.1,1.6 -0.5,0.5 -1,0.8 -1.6,1.1 -1.9,0.8 -4.2,0.4 -5.7,-1.1 -0.5,-0.5 -0.8,-1 -1.1,-1.6 -0.5,-1.3 -0.5,-2.7 0,-4 0.2,-0.6 0.6,-1.2 1.1,-1.6 0.5,-0.5 1,-0.9 1.6,-1.1 1.3,-0.5 2.8,-0.5 4.1,0 0.6,0.2 1.1,0.6 1.6,1.1 0.5,0.5 0.8,1 1.1,1.6 0.6,1.2 0.6,2.7 0,4 z m -0.7,-3.7 c -0.2,-0.5 -0.5,-1 -0.9,-1.4 -0.8,-0.8 -1.9,-1.3 -3.1,-1.2 -0.6,0 -1.2,0.1 -1.7,0.3 -0.5,0.2 -1,0.5 -1.4,0.9 -0.4,0.4 -0.7,0.9 -0.9,1.4 -0.4,1.1 -0.4,2.3 0,3.4 0.2,0.5 0.5,1 0.9,1.4 0.4,0.4 0.9,0.7 1.4,0.9 0.5,0.2 1.1,0.3 1.7,0.3 0.6,0 1.2,-0.1 1.7,-0.3 0.5,-0.2 1,-0.5 1.4,-0.9 0.4,-0.4 0.7,-0.8 0.9,-1.4 0.4,-1.1 0.4,-2.4 0,-3.4 z m -2,1.5 c -0.2,0.3 -0.5,0.5 -0.9,0.6 l 1.2,2.2 h -1.1 l -1.1,-2.1 h -1 v 2.1 h -1 v -5.6 h 2.4 c 0.2,0 0.5,0 0.7,0 0.2,0.1 0.4,0.2 0.6,0.3 0.2,0.1 0.3,0.3 0.4,0.5 0.1,0.2 0.1,0.5 0.1,0.8 0.1,0.5 0,0.9 -0.3,1.3 z m -0.9,-1.6 c -0.2,-0.1 -0.4,-0.2 -0.6,-0.2 h -1.4 v 1.6 h 1.5 c 0.2,0 0.5,-0.1 0.6,-0.2 0.2,-0.1 0.3,-0.4 0.3,-0.6 0,-0.3 -0.1,-0.5 -0.4,-0.6 z" /></g>
</svg>
