<?xml version="1.0" encoding="UTF-8" standalone="no"?>
<!-- Created with Inkscape (http://www.inkscape.org/) -->

<svg
   xmlns:dc="http://purl.org/dc/elements/1.1/"
   xmlns:cc="http://creativecommons.org/ns#"
   xmlns:rdf="http://www.w3.org/1999/02/22-rdf-syntax-ns#"
   xmlns:svg="http://www.w3.org/2000/svg"
   xmlns="http://www.w3.org/2000/svg"
   xmlns:sodipodi="http://sodipodi.sourceforge.net/DTD/sodipodi-0.dtd"
   xmlns:inkscape="http://www.inkscape.org/namespaces/inkscape"
   width="210mm"
   height="297mm"
   viewBox="0 0 744.09448819 1052.3622047"
   id="svg2"
   version="1.1"
   inkscape:version="0.91 r13725"
   sodipodi:docname="gears.svg">
  <sodipodi:namedview
     id="base"
     pagecolor="#ffffff"
     bordercolor="#666666"
     borderopacity="1.0"
     inkscape:pageopacity="0.0"
     inkscape:pageshadow="2"
     inkscape:zoom="1.979899"
     inkscape:cx="485.83924"
     inkscape:cy="458.04041"
     inkscape:document-units="px"
     inkscape:current-layer="layer1"
     showgrid="false"
     inkscape:window-width="1920"
     inkscape:window-height="1005"
     inkscape:window-x="0"
     inkscape:window-y="25"
     inkscape:window-maximized="1" />
  <defs
     id="defs4" />
  <metadata
     id="metadata7">
    <rdf:RDF>
      <cc:Work
         rdf:about="">
        <dc:format>image/svg+xml</dc:format>
        <dc:type
           rdf:resource="http://purl.org/dc/dcmitype/StillImage" />
        <dc:title></dc:title>
      </cc:Work>
    </rdf:RDF>
  </metadata>
  <g
     inkscape:label="Layer 1"
     inkscape:groupmode="layer"
     id="layer1">
    <g
       transform="translate(380.71429,532.36220472)"
       inkscape:label="Gear24"
       id="g3341">
      <path
         d="M69.80222,-5.62101 L71.55559,-5.76220 L76.23081,-4.99643 L82.72923,-2.27738 L82.72923,2.27738 L76.23081,4.99643 L71.55559,5.76220 L69.80222,5.62101 L68.87859,12.63667 L70.60876,12.95409 L74.92648,14.90380 L80.49973,19.21212 L79.32087,23.61168 L72.34013,24.55617 L67.62603,24.08581 L65.96894,23.49562 L63.26100,30.03317 L64.85006,30.78758 L68.51603,33.78837 L72.78431,39.39235 L70.50692,43.33688 L63.51960,42.44244 L59.08786,40.76801 L57.63999,39.76904 L53.33227,45.38297 L54.67194,46.52295 L57.43633,50.37031 L60.10875,56.88805 L56.88805,60.10875 L50.37031,57.43633 L46.52295,54.67194 L45.38297,53.33227 L39.76904,57.63999 L40.76801,59.08786 L42.44244,63.51960 L43.33688,70.50692 L39.39235,72.78431 L33.78837,68.51603 L30.78758,64.85006 L30.03317,63.26100 L23.49562,65.96894 L24.08581,67.62603 L24.55617,72.34013 L23.61168,79.32087 L19.21212,80.49973 L14.90380,74.92648 L12.95409,70.60876 L12.63667,68.87859 L5.62101,69.80222 L5.76220,71.55559 L4.99643,76.23081 L2.27738,82.72923 L-2.27738,82.72923 L-4.99643,76.23081 L-5.76220,71.55559 L-5.62101,69.80222 L-12.63667,68.87859 L-12.95409,70.60876 L-14.90380,74.92648 L-19.21212,80.49973 L-23.61168,79.32087 L-24.55617,72.34013 L-24.08581,67.62603 L-23.49562,65.96894 L-30.03317,63.26100 L-30.78758,64.85006 L-33.78837,68.51603 L-39.39235,72.78431 L-43.33688,70.50692 L-42.44244,63.51960 L-40.76801,59.08786 L-39.76904,57.63999 L-45.38297,53.33227 L-46.52295,54.67194 L-50.37031,57.43633 L-56.88805,60.10875 L-60.10875,56.88805 L-57.43633,50.37031 L-54.67194,46.52295 L-53.33227,45.38297 L-57.63999,39.76904 L-59.08786,40.76801 L-63.51960,42.44244 L-70.50692,43.33688 L-72.78431,39.39235 L-68.51603,33.78837 L-64.85006,30.78758 L-63.26100,30.03317 L-65.96894,23.49562 L-67.62603,24.08581 L-72.34013,24.55617 L-79.32087,23.61168 L-80.49973,19.21212 L-74.92648,14.90380 L-70.60876,12.95409 L-68.87859,12.63667 L-69.80222,5.62101 L-71.55559,5.76220 L-76.23081,4.99643 L-82.72923,2.27738 L-82.72923,-2.27738 L-76.23081,-4.99643 L-71.55559,-5.76220 L-69.80222,-5.62101 L-68.87859,-12.63667 L-70.60876,-12.95409 L-74.92648,-14.90380 L-80.49973,-19.21212 L-79.32087,-23.61168 L-72.34013,-24.55617 L-67.62603,-24.08581 L-65.96894,-23.49562 L-63.26100,-30.03317 L-64.85006,-30.78758 L-68.51603,-33.78837 L-72.78431,-39.39235 L-70.50692,-43.33688 L-63.51960,-42.44244 L-59.08786,-40.76801 L-57.63999,-39.76904 L-53.33227,-45.38297 L-54.67194,-46.52295 L-57.43633,-50.37031 L-60.10875,-56.88805 L-56.88805,-60.10875 L-50.37031,-57.43633 L-46.52295,-54.67194 L-45.38297,-53.33227 L-39.76904,-57.63999 L-40.76801,-59.08786 L-42.44244,-63.51960 L-43.33688,-70.50692 L-39.39235,-72.78431 L-33.78837,-68.51603 L-30.78758,-64.85006 L-30.03317,-63.26100 L-23.49562,-65.96894 L-24.08581,-67.62603 L-24.55617,-72.34013 L-23.61168,-79.32087 L-19.21212,-80.49973 L-14.90380,-74.92648 L-12.95409,-70.60876 L-12.63667,-68.87859 L-5.62101,-69.80222 L-5.76220,-71.55559 L-4.99643,-76.23081 L-2.27738,-82.72923 L2.27738,-82.72923 L4.99643,-76.23081 L5.76220,-71.55559 L5.62101,-69.80222 L12.63667,-68.87859 L12.95409,-70.60876 L14.90380,-74.92648 L19.21212,-80.49973 L23.61168,-79.32087 L24.55617,-72.34013 L24.08581,-67.62603 L23.49562,-65.96894 L30.03317,-63.26100 L30.78758,-64.85006 L33.78837,-68.51603 L39.39235,-72.78431 L43.33688,-70.50692 L42.44244,-63.51960 L40.76801,-59.08786 L39.76904,-57.63999 L45.38297,-53.33227 L46.52295,-54.67194 L50.37031,-57.43633 L56.88805,-60.10875 L60.10875,-56.88805 L57.43633,-50.37031 L54.67194,-46.52295 L53.33227,-45.38297 L57.63999,-39.76904 L59.08786,-40.76801 L63.51960,-42.44244 L70.50692,-43.33688 L72.78431,-39.39235 L68.51603,-33.78837 L64.85006,-30.78758 L63.26100,-30.03317 L65.96894,-23.49562 L67.62603,-24.08581 L72.34013,-24.55617 L79.32087,-23.61168 L80.49973,-19.21212 L74.92648,-14.90380 L70.60876,-12.95409 L68.87859,-12.63667z"
         style="stroke:#000000;stroke-width:1.0;fill:none"
         id="path3343" />
      <path
         style="stroke:#000000;stroke-width:1.0;fill:none"
         sodipodi:cx="0.0"
         sodipodi:cy="0.0"
         sodipodi:rx="10.0"
         sodipodi:ry="10.0"
         sodipodi:type="arc"
         id="path3345"
         d="M 10,0 A 10,10 0 0 1 0,10 10,10 0 0 1 -10,0 10,10 0 0 1 0,-10 10,10 0 0 1 10,0 Z" />
    </g>
    <g
       id="g3361"
       inkscape:label="Gear10"
       transform="translate(485.10153,612.7237)">
      <path
         id="path3363"
         style="fill:none;stroke:#000000;stroke-width:1"
         d="m 25.08911,-4.35798 4.38096,-0.76097 1.96903,0.13949 6.71228,3.10946 0,3.74 -6.71228,3.10946 -1.96903,0.13949 -4.38096,-0.76097 -2.23004,6.86335 3.99156,1.95942 1.51099,1.27022 3.60266,6.46099 -2.19832,3.02572 -7.25805,-1.42977 -1.67497,-1.04452 -3.09698,-3.1907 -5.83831,4.24178 2.07751,3.93139 0.47581,1.91576 -0.88307,7.34464 -3.55695,1.15572 -5.03149,-5.42288 -0.74112,-1.82956 -0.63006,-4.40169 -7.21656,0 -0.63006,4.40169 -0.74112,1.82956 -5.03149,5.42288 -3.55695,-1.15572 -0.88307,-7.34464 0.47581,-1.91576 2.07751,-3.93139 -5.83831,-4.24178 -3.09698,3.1907 -1.67497,1.04452 -7.25805,1.42977 -2.19832,-3.02572 3.60266,-6.46099 1.51099,-1.27022 3.99156,-1.95942 -2.23004,-6.86335 -4.38096,0.76097 -1.96903,-0.13949 -6.71228,-3.10946 0,-3.74 6.71228,-3.10946 1.96903,-0.13949 4.38096,0.76097 2.23004,-6.86335 -3.99156,-1.95942 -1.51099,-1.27022 -3.60266,-6.46099 2.19832,-3.02572 7.25805,1.42977 1.67497,1.04452 3.09698,3.1907 5.83831,-4.24178 -2.07751,-3.93139 -0.47581,-1.91576 0.88307,-7.34464 3.55695,-1.15572 5.03149,5.42288 0.74112,1.82956 0.63006,4.40169 7.21656,0 0.63006,-4.40169 0.74112,-1.82956 5.03149,-5.42288 3.55695,1.15572 0.88307,7.34464 -0.47581,1.91576 -2.07751,3.93139 5.83831,4.24178 3.09698,-3.1907 1.67497,-1.04452 7.25805,-1.42977 2.19832,3.02572 -3.60266,6.46099 -1.51099,1.27022 -3.99156,1.95942 z"
         inkscape:connector-curvature="0" />
      <circle
         id="path3365"
         style="fill:none;stroke:#000000;stroke-width:1"
         cx="0"
         cy="0"
         r="10" />
    </g>
    <g
       transform="translate(593.42049,495.83191)"
       inkscape:label="Gear50"
       id="g3616">
      <path
         inkscape:connector-curvature="0"
         d="m 76.32259,-3.31095 3.21561,0.81136 3.21317,1.2655 0,2.46818 -3.21317,1.2655 -3.21561,0.81136 -0.18685,2.96996 3.08856,1.20799 3.02922,1.65824 -0.30934,2.44871 -3.34644,0.85281 -3.29195,0.40194 -0.55761,2.92313 2.91281,1.58556 2.7975,2.02482 -0.61381,2.39064 -3.42694,0.42666 -3.31636,-0.01382 -0.91959,2.83019 2.69112,1.93813 2.52167,2.35947 -0.9086,2.29486 -3.45339,-0.0062 -3.28848,-0.42936 -1.26705,2.69262 2.42699,2.26014 2.20605,2.65692 -1.18905,2.16288 -3.42538,-0.43899 -3.20874,-0.83813 -1.59453,2.51258 2.12458,2.54649 1.85566,2.91246 -1.45076,1.9968 -3.34334,-0.86484 -3.0784,-1.23368 -1.89686,2.29292 1.78866,2.7927 1.476,3.12207 -1.68958,1.79922 -3.20859,-1.27705 -2.8995,-1.60978 -2.16929,2.0371 1.42455,2.99485 1.07306,3.28245 -1.90176,1.57327 -3.02324,-1.66912 -2.67487,-1.96049 -2.4075,1.74915 1.03795,3.14978 0.65321,3.39105 -2.08396,1.32252 -2.79019,-2.03488 -2.40807,-2.28028 -2.60774,1.43362 0.635,3.25504 0.22304,3.44618 -2.23328,1.0509 -2.51316,-2.36854 -2.10328,-2.56411 -2.76686,1.09548 0.22203,3.30895 -0.21064,3.44696 -2.34738,0.76271 -2.19648,-2.66484 -1.76533,-2.8075 -2.88235,0.74006 -0.19444,3.31069 -0.641,3.39338 -2.42446,0.46249 L 12.44866,78.59774 11.04912,75.59112 8.09675,75.96409 7.4889,79.2243 6.42766,82.51059 3.96435,82.66557 2.49959,79.5382 1.48792,76.37988 l -2.97584,0 -1.01167,3.15832 -1.46476,3.12737 -2.46331,-0.15498 -1.06124,-3.28629 -0.60785,-3.26021 -2.95237,-0.37297 -1.39954,3.00662 -1.84517,2.91912 -2.42446,-0.46249 -0.641,-3.39338 -0.19444,-3.31069 -2.88235,-0.74006 -1.76533,2.8075 -2.19648,2.66484 -2.34738,-0.76271 -0.21064,-3.44696 0.22203,-3.30895 -2.76686,-1.09548 -2.10328,2.56411 -2.51316,2.36854 -2.23328,-1.0509 0.22304,-3.44618 0.635,-3.25504 -2.60774,-1.43362 -2.40807,2.28028 -2.79019,2.03488 -2.08396,-1.32252 0.65321,-3.39105 1.03795,-3.14978 -2.4075,-1.74915 -2.67487,1.96049 -3.02324,1.66912 -1.90176,-1.57327 1.07306,-3.28245 1.42455,-2.99485 -2.16929,-2.0371 -2.8995,1.60978 -3.20859,1.27705 -1.68958,-1.79922 1.476,-3.12207 1.78866,-2.7927 -1.89686,-2.29292 -3.0784,1.23368 -3.34334,0.86484 -1.45076,-1.9968 1.85566,-2.91246 2.12458,-2.54649 -1.59453,-2.51258 -3.20874,0.83813 -3.42538,0.43899 -1.18905,-2.16288 2.20605,-2.65692 2.42699,-2.26014 -1.26705,-2.69262 -3.28848,0.42936 -3.45339,0.0062 -0.9086,-2.29486 2.52167,-2.35947 2.69112,-1.93813 -0.91959,-2.83019 -3.31636,0.01382 -3.42694,-0.42666 -0.61381,-2.39064 2.7975,-2.02482 2.91281,-1.58556 -0.55761,-2.92313 -3.29195,-0.40194 -3.34644,-0.85281 -0.30934,-2.44871 3.02922,-1.65824 3.08856,-1.20799 -0.18685,-2.96996 -3.21561,-0.81136 -3.21317,-1.2655 0,-2.46818 3.21317,-1.2655 3.21561,-0.81136 0.18685,-2.96996 -3.08856,-1.20799 -3.02922,-1.65824 0.30934,-2.44871 3.34644,-0.85281 3.29195,-0.40194 0.55761,-2.92313 -2.91281,-1.58556 -2.7975,-2.02482 0.61381,-2.39064 3.42694,-0.42666 3.31636,0.01382 0.91959,-2.83019 -2.69112,-1.93813 -2.52167,-2.35947 0.9086,-2.29486 3.45339,0.0062 3.28848,0.42936 1.26705,-2.69262 -2.42699,-2.26014 -2.20605,-2.65692 1.18905,-2.16288 3.42538,0.43899 3.20874,0.83813 1.59453,-2.51258 -2.12458,-2.54649 -1.85566,-2.91246 1.45076,-1.9968 3.34334,0.86484 3.0784,1.23368 1.89686,-2.29292 -1.78866,-2.7927 -1.476,-3.12207 1.68958,-1.79922 3.20859,1.27705 2.8995,1.60978 2.16929,-2.0371 -1.42455,-2.99485 -1.07306,-3.28245 1.90176,-1.57327 3.02324,1.66912 2.67487,1.96049 2.4075,-1.74915 -1.03795,-3.14978 -0.65321,-3.39105 2.08396,-1.32252 2.79019,2.03488 2.40807,2.28028 2.60774,-1.43362 -0.635,-3.25504 -0.22304,-3.44618 2.23328,-1.0509 2.51316,2.36854 2.10328,2.56411 2.76686,-1.09548 -0.22203,-3.30895 0.21064,-3.44696 2.34738,-0.76271 2.19648,2.66484 1.76533,2.8075 2.88235,-0.74006 0.19444,-3.31069 0.641,-3.39338 2.42446,-0.46249 1.84517,2.91912 1.39954,3.00662 2.95237,-0.37297 0.60785,-3.26021 1.06124,-3.28629 2.46331,-0.15498 1.46476,3.12737 1.01167,3.15832 2.97584,0 1.01167,-3.15832 1.46476,-3.12737 2.46331,0.15498 1.06124,3.28629 0.60785,3.26021 2.95237,0.37297 1.39954,-3.00662 1.84517,-2.91912 2.42446,0.46249 0.641,3.39338 0.19444,3.31069 2.88235,0.74006 1.76533,-2.8075 2.19648,-2.66484 2.34738,0.76271 0.21064,3.44696 -0.22203,3.30895 2.76686,1.09548 2.10328,-2.56411 2.51316,-2.36854 2.23328,1.0509 -0.22304,3.44618 -0.635,3.25504 2.60774,1.43362 2.40807,-2.28028 2.79019,-2.03488 2.08396,1.32252 -0.65321,3.39105 -1.03795,3.14978 2.4075,1.74915 2.67487,-1.96049 3.02324,-1.66912 1.90176,1.57327 -1.07306,3.28245 -1.42455,2.99485 2.16929,2.0371 2.8995,-1.60978 3.20859,-1.27705 1.68958,1.79922 -1.476,3.12207 -1.78866,2.7927 1.89686,2.29292 3.0784,-1.23368 3.34334,-0.86484 1.45076,1.9968 -1.85566,2.91246 -2.12458,2.54649 1.59453,2.51258 3.20874,-0.83813 3.42538,-0.43899 1.18905,2.16288 -2.20605,2.65692 -2.42699,2.26014 1.26705,2.69262 3.28848,-0.42936 3.45339,-0.0062 0.9086,2.29486 -2.52167,2.35947 -2.69112,1.93813 0.91959,2.83019 3.31636,-0.01382 3.42694,0.42666 0.61381,2.39064 -2.7975,2.02482 -2.91281,1.58556 0.55761,2.92313 3.29195,0.40194 3.34644,0.85281 0.30934,2.44871 -3.02922,1.65824 -3.08856,1.20799 z"
         style="fill:none;stroke:#000000;stroke-width:1"
         id="path3618" />
      <circle
         r="10"
         cy="0"
         cx="0"
         style="fill:none;stroke:#000000;stroke-width:1"
         id="path3620" />
    </g>
    <g
       id="g3648"
       inkscape:label="Gear10"
       transform="translate(573.21744,607.45377)">
      <path
         id="path3650"
         style="fill:none;stroke:#000000;stroke-width:1"
         d="m 12.54456,-2.17899 2.19047,-0.38049 0.98452,0.06975 3.35614,1.55473 0,1.87 -3.35614,1.55473 -0.98452,0.06975 -2.19047,-0.38049 -1.11502,3.43168 1.99577,0.97971 0.7555,0.6351 1.80133,3.2305 -1.09916,1.51286 -3.62903,-0.71489 -0.83748,-0.52226 -1.54849,-1.59535 -2.91916,2.1209 1.03876,1.96569 0.2379,0.95788 -0.44153,3.67232 -1.77847,0.57786 -2.51575,-2.71144 -0.37056,-0.91478 -0.31503,-2.20084 -3.60828,0 -0.31503,2.20084 -0.37056,0.91478 -2.51575,2.71144 -1.77847,-0.57786 -0.44153,-3.67232 0.2379,-0.95788 1.03876,-1.96569 -2.91916,-2.1209 -1.54849,1.59535 -0.83748,0.52226 -3.62903,0.71489 -1.09916,-1.51286 1.80133,-3.2305 0.7555,-0.6351 1.99577,-0.97971 -1.11502,-3.43168 -2.19047,0.38049 -0.98452,-0.06975 -3.35614,-1.55473 0,-1.87 3.35614,-1.55473 0.98452,-0.06975 2.19047,0.38049 1.11502,-3.43168 -1.99577,-0.97971 -0.7555,-0.6351 -1.80133,-3.2305 1.09916,-1.51286 3.62903,0.71489 0.83748,0.52226 1.54849,1.59535 2.91916,-2.1209 -1.03876,-1.96569 -0.2379,-0.95788 0.44153,-3.67232 1.77847,-0.57786 2.51575,2.71144 0.37056,0.91478 0.31503,2.20084 3.60828,0 0.31503,-2.20084 0.37056,-0.91478 2.51575,-2.71144 1.77847,0.57786 0.44153,3.67232 -0.2379,0.95788 -1.03876,1.96569 2.91916,2.1209 1.54849,-1.59535 0.83748,-0.52226 3.62903,-0.71489 1.09916,1.51286 -1.80133,3.2305 -0.7555,0.6351 -1.99577,0.97971 z"
         inkscape:connector-curvature="0" />
      <circle
         id="path3652"
         style="fill:none;stroke:#000000;stroke-width:1"
         cx="0"
         cy="0"
         r="10" />
    </g>
  </g>
</svg>
