<svg xmlns="http://www.w3.org/2000/svg" width="200px" height="48.94px" viewBox="0 0 200 48.94"><title>bsc-logo</title><path d="M64.35,6.53h3.52c1.49,0,2,.52,2,1.51a1.57,1.57,0,0,1-1.26,1.65h0v0a1.38,1.38,0,0,1,1,1.37c0,1.65-1.32,2.3-2.82,2.3H62.93Zm1,5.22h1.36a0.76,0.76,0,0,0,.89-0.69c0-.51-0.38-0.59-0.82-0.59H65.6ZM65.86,9.2H67a0.64,0.64,0,0,0,.76-0.55c0-.41-0.28-0.49-0.65-0.49H66.07Zm4.86,0.71C71,8.58,72,8.27,73.26,8.27c0.9,0,2.42.12,2.42,1.33,0,0.78-.6,3-0.6,3.34a1,1,0,0,0,.08.44H73.29a1.36,1.36,0,0,1-.07-0.48h0a2.08,2.08,0,0,1-1.54.61,1.38,1.38,0,0,1-1.61-1.32c0-1.32,1-1.67,2.41-1.77,0.54,0,1.39,0,1.39-.58a0.49,0.49,0,0,0-.6-0.43,0.68,0.68,0,0,0-.76.51H70.71Zm1.85,2.48a1.11,1.11,0,0,0,1-1.21,2.76,2.76,0,0,1-1,.22A0.58,0.58,0,0,0,72,12,0.49,0.49,0,0,0,72.56,12.38Zm3.48,1h1.9l0.43-2.08c0.22-1,.62-1.39,1.43-1.39a2.17,2.17,0,0,1,.73.12l0.35-1.68a2.08,2.08,0,0,0-.67-0.08,1.92,1.92,0,0,0-1.45.9h0l0.16-.78H77.07ZM86,10.29c0-1.39-1-2-2.38-2a2.8,2.8,0,0,0-3,3c0,0.93.42,2.28,2.53,2.28a2.49,2.49,0,0,0,2.68-2.11H84a0.94,0.94,0,0,1-.84.73c-0.55,0-.65-0.44-0.65-0.91s0.22-1.56,1-1.56A0.63,0.63,0,0,1,84,9.8a0.59,0.59,0,0,1,.13.49H86Zm5.43,1.64c-0.13.34-.5,1.58-2.65,1.58-1.77,0-2.48-1-2.48-2.2a2.87,2.87,0,0,1,3-3,2.23,2.23,0,0,1,2.44,2.18,3.08,3.08,0,0,1-.1.86H88a0.8,0.8,0,0,0,.78,1,0.81,0.81,0,0,0,.75-0.36H91.4Zm-1.5-1.6a0.94,0.94,0,0,0,0-.16,0.65,0.65,0,0,0-.72-0.67,1,1,0,0,0-1,.84H89.9Zm2.2,3.05H94l1.42-6.86h-1.9Zm6.32-5.11c1.46,0,2.42.67,2.42,2.18a2.87,2.87,0,0,1-3,3.05,2.2,2.2,0,0,1-2.49-2.33A2.8,2.8,0,0,1,98.42,8.27Zm-0.5,3.85c0.75,0,1-1.1,1-1.54,0-.59-0.15-0.93-0.66-0.93-0.76,0-1,1.14-1,1.66A0.67,0.67,0,0,0,97.92,12.13Zm3.21,1.26H103l0.56-2.64a1,1,0,0,1,.92-1,0.48,0.48,0,0,1,.54.48,5.72,5.72,0,0,1-.15.83l-0.49,2.29h1.9l0.6-2.82a5.39,5.39,0,0,0,.13-1,1.37,1.37,0,0,0-1.62-1.34,2,2,0,0,0-1.55.76h0L104,8.4h-1.83Zm6.94-3.48c0.3-1.32,1.32-1.63,2.55-1.63,0.9,0,2.42.12,2.42,1.33,0,0.78-.61,3-0.61,3.34a1,1,0,0,0,.08.44h-1.86a1.33,1.33,0,0,1-.07-0.48h0a2.07,2.07,0,0,1-1.54.61,1.38,1.38,0,0,1-1.61-1.32c0-1.32,1-1.67,2.41-1.77,0.54,0,1.39,0,1.39-.58a0.48,0.48,0,0,0-.59-0.43,0.68,0.68,0,0,0-.76.51h-1.79Zm1.84,2.48a1.11,1.11,0,0,0,1-1.21,2.75,2.75,0,0,1-1,.22,0.58,0.58,0,0,0-.61.56A0.48,0.48,0,0,0,109.91,12.38ZM67.37,19.61h1.95c0-1.69-1.28-2.24-2.74-2.24s-2.88.71-2.88,2.26a1.94,1.94,0,0,0,1.64,1.86c1,0.32,1.65.38,1.65,0.88a0.82,0.82,0,0,1-.92.66,1.16,1.16,0,0,1-.78-0.17A1,1,0,0,1,65,22.09H63c-0.09,1.75,1.34,2.47,2.91,2.47S69,23.78,69,22.13a1.94,1.94,0,0,0-1.59-1.89C66.73,20,65.7,20,65.7,19.45a0.68,0.68,0,0,1,.82-0.56,1,1,0,0,1,.61.15,0.63,0.63,0,0,1,.24.57h0Zm8.08-.2h-1.9l-0.43,2c-0.15.63-.19,1.56-1,1.56a0.5,0.5,0,0,1-.55-0.47A2.06,2.06,0,0,1,71.61,22l0.56-2.6h-1.9a31.89,31.89,0,0,0-.74,3.78,1.35,1.35,0,0,0,1.58,1.33,2,2,0,0,0,1.6-.76h0l-0.15.63h1.84Zm1.1,0H78.4L78.28,20h0a1.53,1.53,0,0,1,1.34-.69,1.83,1.83,0,0,1,1.81,2c0,1.48-.74,3.19-2.43,3.19a1.53,1.53,0,0,1-1.5-.73L77.07,26h-1.9Zm3,2.14a0.71,0.71,0,0,0-.69-0.88c-0.84,0-1,1.21-1,1.65a0.74,0.74,0,0,0,.69.82C79.31,23.14,79.55,22.2,79.55,21.56Zm7.58,1.39c-0.12.34-.5,1.58-2.65,1.58-1.77,0-2.48-1-2.48-2.2a2.87,2.87,0,0,1,3-3,2.23,2.23,0,0,1,2.44,2.18,3,3,0,0,1-.1.86H83.77a0.8,0.8,0,0,0,.78,1,0.82,0.82,0,0,0,.75-0.35h1.82Zm-1.5-1.6a0.81,0.81,0,0,0,0-.16,0.65,0.65,0,0,0-.72-0.67,1,1,0,0,0-1,.84h1.69Zm2.15,3.05h1.9l0.43-2.08c0.22-1,.62-1.39,1.43-1.39a2.11,2.11,0,0,1,.73.13l0.36-1.68A2,2,0,0,0,92,19.29a1.93,1.93,0,0,0-1.45.9h0l0.16-.78H88.81ZM97.7,21.3c0-1.39-1-2-2.38-2a2.81,2.81,0,0,0-3,3c0,0.93.42,2.27,2.53,2.27a2.49,2.49,0,0,0,2.68-2.11H95.7a0.93,0.93,0,0,1-.83.73c-0.55,0-.65-0.44-0.65-0.91s0.22-1.55,1-1.55a0.62,0.62,0,0,1,.48.14,0.57,0.57,0,0,1,.14.49H97.7Zm3.38-2c1.46,0,2.42.67,2.42,2.18a2.87,2.87,0,0,1-3,3.05A2.2,2.2,0,0,1,98,22.19,2.8,2.8,0,0,1,101.07,19.29Zm-0.5,3.85c0.75,0,1-1.1,1-1.54,0-.59-0.15-0.93-0.66-0.93-0.76,0-1,1.14-1,1.66A0.67,0.67,0,0,0,100.58,23.14Zm3.21,1.26h1.9l0.61-2.85a0.79,0.79,0,0,1,.8-0.74,0.42,0.42,0,0,1,.48.46,2.77,2.77,0,0,1-.08.46l-0.58,2.67h1.9l0.65-3a0.69,0.69,0,0,1,.72-0.58,0.44,0.44,0,0,1,.49.48,7.3,7.3,0,0,1-.11.73l-0.51,2.38H112l0.6-2.84a5.37,5.37,0,0,0,.12-0.79,1.38,1.38,0,0,0-1.59-1.48,2.05,2.05,0,0,0-1.63.83,1.18,1.18,0,0,0-1.34-.83,2,2,0,0,0-1.57.78h0l0.14-.65h-1.84Zm10.29-5h1.85l-0.12.57h0a1.53,1.53,0,0,1,1.33-.69,1.83,1.83,0,0,1,1.81,2c0,1.48-.74,3.19-2.43,3.19a1.53,1.53,0,0,1-1.5-.73L114.6,26h-1.9Zm3,2.14a0.71,0.71,0,0,0-.69-0.88c-0.84,0-1,1.21-1,1.65a0.74,0.74,0,0,0,.69.82C116.83,23.14,117.07,22.2,117.07,21.56Zm8.36-2.14h-1.9l-0.43,2c-0.15.63-.19,1.56-1,1.56a0.5,0.5,0,0,1-.55-0.47,2.06,2.06,0,0,1,.08-0.52l0.56-2.6h-1.9a31.89,31.89,0,0,0-.74,3.78,1.35,1.35,0,0,0,1.58,1.33,2,2,0,0,0,1.6-.76h0l-0.15.63h1.84ZM129,17.91h-1.9l-0.33,1.51H126l-0.27,1.17h0.84l-0.44,2a3,3,0,0,0-.1.68,1.09,1.09,0,0,0,.52.94,2.44,2.44,0,0,0,1.2.2,9.54,9.54,0,0,0,1-.13L129,23c-0.15,0-.32,0-0.62,0s-0.39-.13-0.39-0.3a2.48,2.48,0,0,1,.09-0.5l0.34-1.6h1l0.27-1.17h-1Zm1.43,1.51h1.9l-1,5h-1.9Zm2-.54h-1.9l0.28-1.33h1.9Zm-0.07,5.52h1.9l0.56-2.64a1,1,0,0,1,.92-1,0.48,0.48,0,0,1,.54.48,5.52,5.52,0,0,1-.15.83l-0.49,2.28h1.9l0.6-2.81a5.26,5.26,0,0,0,.13-0.95,1.37,1.37,0,0,0-1.62-1.35,2,2,0,0,0-1.54.76h0l0.14-.63h-1.83Zm11.42-.86c-0.29,1.4-.55,2.6-3,2.6-0.59,0-2.37-.07-2.31-1.66h1.88a0.57,0.57,0,0,0,.15.43A0.72,0.72,0,0,0,141,25a0.86,0.86,0,0,0,.82-0.88L142,23.6h0a1.57,1.57,0,0,1-1.19.5,1.82,1.82,0,0,1-1.95-1.94,2.61,2.61,0,0,1,2.4-2.87,1.52,1.52,0,0,1,1.48.77h0l0.13-.64h1.83Zm-3.11-1.45a0.69,0.69,0,0,0,.65.8c0.9,0,1.06-1.09,1.06-1.43a0.64,0.64,0,0,0-.71-0.78A1.22,1.22,0,0,0,140.72,22.08ZM69.85,32.81H67.77a1.18,1.18,0,0,1-1.17,1.06,1.2,1.2,0,0,1-1.1-1.45c0-1,.42-2.32,1.59-2.32a0.86,0.86,0,0,1,.94,1h2c0-2.05-1.4-2.72-2.93-2.72-2.33,0-3.72,1.84-3.72,4.06,0,1.83,1,3.12,2.95,3.12a3.22,3.22,0,0,0,3.51-2.77h0ZM75.56,34c-0.13.34-.5,1.57-2.65,1.57-1.77,0-2.48-1-2.48-2.2a2.87,2.87,0,0,1,3-3,2.23,2.23,0,0,1,2.44,2.18,3.09,3.09,0,0,1-.1.86H72.21a0.8,0.8,0,0,0,.78,1A0.82,0.82,0,0,0,73.74,34h1.83Zm-1.5-1.6a0.94,0.94,0,0,0,0-.16,0.65,0.65,0,0,0-.72-0.67,1,1,0,0,0-1,.84h1.69Zm2.15,3.05h1.9l0.56-2.64a1,1,0,0,1,.92-1,0.48,0.48,0,0,1,.54.48,5.36,5.36,0,0,1-.16.83l-0.49,2.28h1.9L82,32.6a5.41,5.41,0,0,0,.13-1,1.37,1.37,0,0,0-1.62-1.34,2,2,0,0,0-1.54.76h0l0.14-.63H77.25ZM86,28.92H84.1l-0.34,1.51H82.94L82.67,31.6h0.84l-0.44,2a3,3,0,0,0-.11.68,1.1,1.1,0,0,0,.52.94,2.44,2.44,0,0,0,1.2.2,9.09,9.09,0,0,0,1-.13L86,34c-0.15,0-.32,0-0.62,0S85,33.86,85,33.7a2.29,2.29,0,0,1,.09-0.5l0.34-1.6h1l0.27-1.17h-1Zm5.74,5c-0.12.34-.5,1.57-2.65,1.57-1.77,0-2.48-1-2.48-2.2a2.87,2.87,0,0,1,3-3A2.23,2.23,0,0,1,92,32.48a3.08,3.08,0,0,1-.09.86H88.39a0.8,0.8,0,0,0,.78,1A0.82,0.82,0,0,0,89.92,34h1.82Zm-1.5-1.6a0.94,0.94,0,0,0,0-.16,0.65,0.65,0,0,0-.72-0.67,1,1,0,0,0-1,.84h1.69Zm2.15,3.05h1.9l0.43-2.08c0.22-1,.62-1.39,1.43-1.39a2.11,2.11,0,0,1,.73.13l0.36-1.68a2,2,0,0,0-.67-0.08,1.93,1.93,0,0,0-1.45.9h0l0.16-.78H93.42ZM68.27,42.67H67.52a1.72,1.72,0,0,1-1.75,1.41,1.61,1.61,0,0,1-1.67-1.84,2.54,2.54,0,0,1,2.35-2.81,1.25,1.25,0,0,1,1.4,1.32H68.6a1.91,1.91,0,0,0-2.15-2,3.19,3.19,0,0,0-3.1,3.44,2.23,2.23,0,0,0,2.42,2.47,2.38,2.38,0,0,0,2.5-2h0Zm1.27,0.06a2.71,2.71,0,0,0,0,.36,1,1,0,0,0,1.06,1,1.16,1.16,0,0,0,1.18-.78h0.67a1.78,1.78,0,0,1-1.85,1.37A1.56,1.56,0,0,1,68.84,43a2.37,2.37,0,0,1,2.1-2.63,1.57,1.57,0,0,1,1.73,1.81,2.6,2.6,0,0,1-.06.53H69.54ZM72,42.14A1,1,0,0,0,71,41a1.45,1.45,0,0,0-1.42,1.15H72Zm1,2.43h0.67l0.48-2.26a1.68,1.68,0,0,1,.45-0.85,1.47,1.47,0,0,1,1-.48,0.61,0.61,0,0,1,.71.57,4.65,4.65,0,0,1-.09.63l-0.52,2.39h0.67l0.5-2.33a4.34,4.34,0,0,0,.12-0.8,1,1,0,0,0-1.14-1.05,1.81,1.81,0,0,0-1.46.71h0l0.13-.62H73.83Zm6.43-5.3H78.73l-0.25,1.21H77.79l-0.13.59h0.69l-0.54,2.54a1.81,1.81,0,0,0,0,.34c0,0.52.42,0.66,0.92,0.66a2.25,2.25,0,0,0,.47,0L79.29,44a1.29,1.29,0,0,1-.39.07,0.33,0.33,0,0,1-.4-0.28c0-.09,0-0.17,0-0.27L79,41.08h0.81L80,40.49H79.15Zm0.45,5.3h0.67l0.39-1.81a2.72,2.72,0,0,1,.34-1,1.48,1.48,0,0,1,.87-0.66,1.4,1.4,0,0,1,.4,0h0.2l0.16-.72a1.18,1.18,0,0,0-.24,0,1.68,1.68,0,0,0-1.48,1h0l0.2-.88H80.71Zm5.09-4.18a1.53,1.53,0,0,1,1.7,1.69,2.38,2.38,0,0,1-2.26,2.59A1.62,1.62,0,0,1,82.66,43,2.38,2.38,0,0,1,84.95,40.39Zm-0.49,3.69A1.83,1.83,0,0,0,86,42.14,1,1,0,0,0,84.9,41a1.83,1.83,0,0,0-1.57,2A1,1,0,0,0,84.46,44.08Zm4.86,0.5H90l1-4.64h0l2,4.64h0.81L95,38.93H94.29L93.35,43.6h0l-2-4.67H90.51Zm6.07-2.85a1.62,1.62,0,0,1,1.77-1.33c0.79,0,1.49.21,1.49,1a3.87,3.87,0,0,1-.13.74L98.27,43.3a3.12,3.12,0,0,0-.11.58,0.2,0.2,0,0,0,.2.25,0.76,0.76,0,0,0,.22-0.05l-0.1.5a1,1,0,0,1-.41.09,0.48,0.48,0,0,1-.53-0.57l0,0a1.54,1.54,0,0,1-1.37.59,1.1,1.1,0,0,1-1.25-1.15c0-1.19,1.16-1.26,2.06-1.34,0.71-.06,1-0.1,1-0.65A0.67,0.67,0,0,0,97.17,41a1,1,0,0,0-1.1.73H95.39Zm0.91,2.36a1.27,1.27,0,0,0,1.15-.54,2.92,2.92,0,0,0,.35-1.05h0a4,4,0,0,1-1.31.28,0.83,0.83,0,0,0-.91.74A0.64,0.64,0,0,0,96.3,44.08ZM103,41.79a1.34,1.34,0,0,0-1.53-1.39,2.32,2.32,0,0,0-2.26,2.51,1.56,1.56,0,0,0,1.68,1.76,1.82,1.82,0,0,0,1.87-1.43h-0.67a1.24,1.24,0,0,1-1.19.84,1,1,0,0,1-1-1.17A1.77,1.77,0,0,1,101.51,41a0.77,0.77,0,0,1,.86.8H103Zm1.1-1.3h0.67L104,44.58h-0.67Zm0.83-.74h-0.68l0.18-.82h0.68Zm2.53,0.64a1.53,1.53,0,0,1,1.7,1.69,2.38,2.38,0,0,1-2.26,2.59A1.62,1.62,0,0,1,105.21,43,2.38,2.38,0,0,1,107.5,40.39ZM107,44.08a1.83,1.83,0,0,0,1.52-1.94A1,1,0,0,0,107.45,41a1.83,1.83,0,0,0-1.56,2A1,1,0,0,0,107,44.08Zm2.57,0.5h0.67l0.47-2.26a1.69,1.69,0,0,1,.45-0.85,1.47,1.47,0,0,1,1-.48,0.6,0.6,0,0,1,.71.57,4.62,4.62,0,0,1-.09.63l-0.52,2.39H113l0.5-2.33a4.21,4.21,0,0,0,.12-0.8,1,1,0,0,0-1.14-1.05,1.81,1.81,0,0,0-1.45.71h0l0.13-.62h-0.65Zm4.85-2.85a1.62,1.62,0,0,1,1.77-1.33c0.79,0,1.5.21,1.5,1a3.88,3.88,0,0,1-.13.74l-0.26,1.12a3.25,3.25,0,0,0-.11.58,0.2,0.2,0,0,0,.2.25,0.76,0.76,0,0,0,.22-0.05l-0.1.5a1,1,0,0,1-.41.09,0.48,0.48,0,0,1-.53-0.57v0a1.54,1.54,0,0,1-1.37.59,1.1,1.1,0,0,1-1.25-1.15c0-1.19,1.16-1.26,2.06-1.34,0.71-.06,1-0.1,1-0.65a0.67,0.67,0,0,0-.82-0.54,1,1,0,0,0-1.1.73h-0.67Zm0.91,2.36a1.27,1.27,0,0,0,1.15-.54,2.89,2.89,0,0,0,.36-1.05h0a4.05,4.05,0,0,1-1.31.28,0.82,0.82,0,0,0-.91.74A0.64,0.64,0,0,0,115.35,44.08Zm2.74,0.5h0.67l1.19-5.64h-0.67Zm7.59,0H125l0.14-.58h0a1.63,1.63,0,0,1-3-1,2.45,2.45,0,0,1,2.27-2.6,1.23,1.23,0,0,1,1.27.72h0l0.43-2.18h0.66Zm-1.74-.5c1,0,1.6-1.18,1.6-2a1,1,0,0,0-1-1.06,1.85,1.85,0,0,0-1.62,2A1,1,0,0,0,123.93,44.08Zm3.61-1.35a2.69,2.69,0,0,0,0,.36,1,1,0,0,0,1.06,1,1.16,1.16,0,0,0,1.18-.78h0.67a1.78,1.78,0,0,1-1.85,1.37A1.56,1.56,0,0,1,126.84,43a2.37,2.37,0,0,1,2.1-2.63,1.57,1.57,0,0,1,1.73,1.81,2.71,2.71,0,0,1-.06.53h-3.07Zm2.47-.59a1,1,0,0,0-1-1.15,1.45,1.45,0,0,0-1.41,1.15H130Zm7.31-1.54h0.75a1.78,1.78,0,0,0-2-1.8A1.83,1.83,0,0,0,134,40.44a1.47,1.47,0,0,0,1.27,1.42L136,42.06a1,1,0,0,1,1,.93,1.22,1.22,0,0,1-1.42,1.08c-0.92,0-1.55-.33-1.5-1.35h-0.75c-0.09,1.38.86,2,2.22,2a2,2,0,0,0,2.2-1.71,1.5,1.5,0,0,0-1.36-1.53l-0.76-.21a1,1,0,0,1-.92-0.91,1.14,1.14,0,0,1,1.3-.93,1.07,1.07,0,0,1,1.3,1.17h0Zm5.13-.11h-0.67l-0.48,2.26a1.6,1.6,0,0,1-1.46,1.33,0.61,0.61,0,0,1-.71-0.57,4.5,4.5,0,0,1,.1-0.63l0.52-2.39h-0.67l-0.5,2.33a4.29,4.29,0,0,0-.12.8,1,1,0,0,0,1.14,1.05A1.82,1.82,0,0,0,141,44h0l-0.13.62h0.65Zm1.09,0h0.63l-0.14.58h0a1.63,1.63,0,0,1,3,1,2.45,2.45,0,0,1-2.27,2.6,1.23,1.23,0,0,1-1.27-.72h0L143,46.14h-0.66Zm1.74,0.5c-1,0-1.6,1.18-1.6,2a1,1,0,0,0,1,1.06,1.85,1.85,0,0,0,1.62-2A1,1,0,0,0,145.28,41Zm2.92,1.75a3,3,0,0,0,0,.36,1,1,0,0,0,1.06,1,1.16,1.16,0,0,0,1.18-.78h0.67a1.78,1.78,0,0,1-1.85,1.37A1.56,1.56,0,0,1,147.5,43a2.37,2.37,0,0,1,2.1-2.63,1.57,1.57,0,0,1,1.73,1.81,2.49,2.49,0,0,1-.06.53h-3.08Zm2.47-.59a1,1,0,0,0-1-1.15,1.45,1.45,0,0,0-1.42,1.15h2.37Zm1,2.43h0.67l0.39-1.81a2.79,2.79,0,0,1,.34-1,1.48,1.48,0,0,1,.87-0.66,1.44,1.44,0,0,1,.41,0h0.2l0.16-.72a1.18,1.18,0,0,0-.24,0,1.69,1.69,0,0,0-1.49,1h0l0.2-.88h-0.63Zm6.63-2.79a1.34,1.34,0,0,0-1.54-1.39,2.32,2.32,0,0,0-2.26,2.51,1.56,1.56,0,0,0,1.68,1.76A1.82,1.82,0,0,0,158,43.24h-0.67a1.24,1.24,0,0,1-1.19.84,1,1,0,0,1-1-1.17A1.77,1.77,0,0,1,156.73,41a0.77,0.77,0,0,1,.86.8h0.67Zm2.7-1.39a1.53,1.53,0,0,1,1.7,1.69,2.38,2.38,0,0,1-2.26,2.59A1.62,1.62,0,0,1,158.68,43,2.38,2.38,0,0,1,161,40.39Zm-0.49,3.69A1.83,1.83,0,0,0,162,42.14,1,1,0,0,0,160.92,41a1.83,1.83,0,0,0-1.56,2A1,1,0,0,0,160.47,44.08Zm2.57,0.5h0.67l0.46-2.14a1.55,1.55,0,0,1,.44-0.93,1.47,1.47,0,0,1,1-.52,0.5,0.5,0,0,1,.57.54,5.27,5.27,0,0,1-.13.72l-0.49,2.33h0.67l0.45-2.11a1.84,1.84,0,0,1,.38-0.92,1.46,1.46,0,0,1,1-.56,0.58,0.58,0,0,1,.62.55,2.18,2.18,0,0,1-.06.44l-0.57,2.59h0.67l0.51-2.45a4.12,4.12,0,0,0,.12-0.81,1,1,0,0,0-1.14-.92,1.79,1.79,0,0,0-1.4.74,0.93,0.93,0,0,0-1-.74,1.86,1.86,0,0,0-1.42.72l0,0,0.15-.61h-0.63Zm7.58-4.09h0.63l-0.14.58h0a1.63,1.63,0,0,1,3,1,2.45,2.45,0,0,1-2.27,2.6,1.23,1.23,0,0,1-1.27-.72h0l-0.43,2.19h-0.66Zm1.74,0.5c-1,0-1.6,1.18-1.6,2a1,1,0,0,0,1,1.06,1.85,1.85,0,0,0,1.62-2A1,1,0,0,0,172.37,41Zm6.26-.5H178l-0.48,2.26A1.6,1.6,0,0,1,176,44.08a0.6,0.6,0,0,1-.71-0.57,4.48,4.48,0,0,1,.09-0.63l0.52-2.39h-0.67l-0.5,2.33a4.24,4.24,0,0,0-.12.8,1,1,0,0,0,1.14,1.05,1.82,1.82,0,0,0,1.46-.71h0l-0.13.62h0.65Zm2.29-1.21h-0.67L180,40.49H179.3l-0.13.59h0.69l-0.54,2.54a1.81,1.81,0,0,0,0,.34c0,0.52.42,0.66,0.92,0.66a2.25,2.25,0,0,0,.47,0l0.12-.62a1.27,1.27,0,0,1-.39.07,0.33,0.33,0,0,1-.4-0.28c0-.09,0-0.17,0-0.27l0.51-2.4h0.82l0.13-.59h-0.81Zm0.91,2.44a1.62,1.62,0,0,1,1.77-1.33c0.79,0,1.5.21,1.5,1a4,4,0,0,1-.13.74L184.7,43.3a3.12,3.12,0,0,0-.11.58,0.2,0.2,0,0,0,.2.25,0.76,0.76,0,0,0,.22-0.05l-0.1.5a1,1,0,0,1-.41.09A0.48,0.48,0,0,1,184,44.1l0,0a1.54,1.54,0,0,1-1.37.59,1.1,1.1,0,0,1-1.25-1.15c0-1.19,1.16-1.26,2.06-1.34,0.71-.06,1-0.1,1-0.65a0.67,0.67,0,0,0-.82-0.54,1,1,0,0,0-1.1.73h-0.67Zm0.91,2.36a1.27,1.27,0,0,0,1.15-.54,3,3,0,0,0,.35-1.05h0a4.07,4.07,0,0,1-1.31.28,0.82,0.82,0,0,0-.91.74A0.64,0.64,0,0,0,182.73,44.08Zm6.74-2.29a1.34,1.34,0,0,0-1.53-1.39,2.32,2.32,0,0,0-2.26,2.51,1.56,1.56,0,0,0,1.69,1.76,1.82,1.82,0,0,0,1.86-1.43h-0.67a1.24,1.24,0,0,1-1.19.84,1,1,0,0,1-1-1.17A1.77,1.77,0,0,1,187.93,41a0.77,0.77,0,0,1,.86.8h0.67Zm1.1-1.3h0.67l-0.85,4.09h-0.67Zm0.83-.74h-0.68l0.17-.82h0.68Zm2.53,0.64a1.53,1.53,0,0,1,1.7,1.69,2.38,2.38,0,0,1-2.26,2.59A1.62,1.62,0,0,1,191.64,43,2.38,2.38,0,0,1,193.93,40.39Zm-0.49,3.69A1.83,1.83,0,0,0,195,42.14,1,1,0,0,0,193.88,41a1.83,1.83,0,0,0-1.57,2A1,1,0,0,0,193.43,44.08Zm1.08-5.28h0.89l-1.07,1.13h-0.56ZM196,44.58h0.67l0.47-2.26a1.71,1.71,0,0,1,.45-0.85,1.47,1.47,0,0,1,1-.48,0.6,0.6,0,0,1,.71.57,4.89,4.89,0,0,1-.09.63l-0.52,2.39h0.67l0.5-2.33a4.34,4.34,0,0,0,.12-0.8,1,1,0,0,0-1.14-1.05,1.81,1.81,0,0,0-1.45.71h0l0.13-.62h-0.65ZM8.68,25.34A21.93,21.93,0,0,0,31.21,47.06C18.94,44.23,13.84,34.81,13.84,26.28c0-12,9.7-22.44,25.11-21.69a39.57,39.57,0,0,0-7.51-1.31C19.8,3.28,8.68,12.38,8.68,25.34ZM0,24.4C0,35.58,8.45,49.33,24.17,48.93,10.91,45.93,5.4,35.4,5.4,25.46c0-11.56,8.54-24,22.76-24a31.34,31.34,0,0,1,3.17.12A31.28,31.28,0,0,0,23.23,0C10.32,0,0,11.41,0,24.4Zm28.23,1.72H26.85l-0.32,1.51h1.61a0.9,0.9,0,0,0,1.06-.82C29.19,26.21,28.75,26.12,28.23,26.12ZM36.55,6.4A19.4,19.4,0,1,0,56,25.8,19.4,19.4,0,0,0,36.55,6.4ZM31.7,26.83c0,2-1.57,2.74-3.35,2.74H23.68l1.69-8.14h4.18c1.77,0,2.43.61,2.43,1.79a1.86,1.86,0,0,1-1.5,2h0v0A1.63,1.63,0,0,1,31.7,26.83ZM38,24.63c1.41,0.5,1.89,1.28,1.89,2.25,0,2-1.9,2.88-3.67,2.88s-3.56-.85-3.46-2.93H35.2a1.21,1.21,0,0,0,.31.92,1.38,1.38,0,0,0,.92.2,1,1,0,0,0,1.1-.78c0-.59-0.83-0.68-2-1s-2-.86-2-2.21c0-1.84,1.78-2.68,3.42-2.68s3.29,0.65,3.25,2.66H38a0.74,0.74,0,0,0-.28-0.67A1.23,1.23,0,0,0,37,23a0.8,0.8,0,0,0-1,.66C36,24.31,37.21,24.35,38,24.63Zm7.23,3.1a1.4,1.4,0,0,0,1.39-1.25h2.46a3.82,3.82,0,0,1-4.17,3.28c-2.36,0-3.5-1.53-3.5-3.7,0-2.63,1.64-4.82,4.41-4.82,1.81,0,3.43.79,3.48,3.23H46.93a1,1,0,0,0-1.12-1.2c-1.39,0-1.89,1.6-1.89,2.75C43.92,26.68,44.08,27.73,45.23,27.73ZM28.69,23.37H27.4L27.15,24.6h1.41a0.76,0.76,0,0,0,.9-0.65C29.47,23.46,29.14,23.37,28.69,23.37Z" style="fill:#1d3176"/></svg>