<?xml version="1.0" encoding="UTF-8" standalone="no"?>
<svg
   height="299.87186"
   viewBox="-12.381185 -2.3 530.63231 90.539995"
   width="1767.8994"
   version="1.1"
   id="svg10"
   sodipodi:docname="openapi-wordmark-2.svg"
   inkscape:version="1.4 (e7c3feb100, 2024-10-09)"
   xmlns:inkscape="http://www.inkscape.org/namespaces/inkscape"
   xmlns:sodipodi="http://sodipodi.sourceforge.net/DTD/sodipodi-0.dtd"
   xmlns="http://www.w3.org/2000/svg"
   xmlns:svg="http://www.w3.org/2000/svg">
  <defs
     id="defs10" />
  <sodipodi:namedview
     id="namedview10"
     pagecolor="#ffffff"
     bordercolor="#000000"
     borderopacity="0.25"
     inkscape:showpageshadow="2"
     inkscape:pageopacity="0.0"
     inkscape:pagecheckerboard="0"
     inkscape:deskcolor="#d1d1d1"
     inkscape:zoom="0.24595969"
     inkscape:cx="-87.412699"
     inkscape:cy="587.49465"
     inkscape:window-width="1920"
     inkscape:window-height="1005"
     inkscape:window-x="0"
     inkscape:window-y="28"
     inkscape:window-maximized="1"
     inkscape:current-layer="svg10" />
  <path
     id="path11"
     d="m -14.606782,42.97 c 0,-26.38 19.2999996,-45.27 45.82,-45.27 26.39,0 45.69,18.89 45.69,45.27 0,26.37 -19.3,45.27 -45.69,45.27 -26.5200004,0 -45.82,-18.9 -45.82,-45.27 z m 72.34,0 c 0,-16.41 -10.37,-28.74 -26.52,-28.74 -16.28,0 -26.6500004,12.33 -26.6500004,28.74 0,16.27 10.3700004,28.73 26.6500004,28.73 16.15,0 26.52,-12.46 26.52,-28.73 z m 29.01,-43.83 h 40.960002 c 19.04,0 29.41,12.86 29.41,28.21 0,15.22 -10.5,28.08 -29.41,28.08 h -22.32 V 86.66 H 86.743218 Z m 51.340002,28.21 c 0,-7.35 -5.65,-11.81 -13,-11.81 h -19.7 v 23.49 h 19.7 c 7.35,0 13,-4.46 13,-11.68 z m 27.43,59.31 V -0.86 h 61.97 v 16.4 h -43.32 v 18.37 h 42.4 v 16.41 h -42.4 v 19.94 h 43.32 v 16.4 z m 133.65,0 -41.75,-57.08 v 57.08 h -18.65 V -0.86 h 19.18 l 40.57,54.98 V -0.86 h 18.64 v 87.52 z m 96.6,0 -5.52,-14.83 h -37.54 l -5.52,14.83 h -21.14 l 33.75,-87.52 h 23.37 l 33.74,87.52 z m -24.29,-68.89 -13.65,37.66 h 27.31 z m 50.28,-18.63 h 40.96 c 19.04,0 29.41,12.86 29.41,28.21 0,15.22 -10.5,28.08 -29.41,28.08 h -22.32 v 31.23 h -18.64 z m 51.34,28.21 c 0,-7.35 -5.65,-11.81 -13,-11.81 h -19.7 v 23.49 h 19.7 c 7.35,0 13,-4.46 13,-11.68 z m 27.43,59.31 V -0.86 h 18.65 v 87.52 z" />
</svg>
