<svg id="Black" xmlns="http://www.w3.org/2000/svg" viewBox="0 0 595.28 419.53"><defs><style>.cls-1{fill:#1d1d1b;}</style></defs><title>Horizontaled+Tagline_Black</title><path class="cls-1" d="M98.09,253.3a15.73,15.73,0,0,1-2.73-1.2,3.52,3.52,0,0,1-1.27-1.2,3.3,3.3,0,0,1-.38-1.67,2.57,2.57,0,0,1,1-2.16,4.59,4.59,0,0,1,2.84-.78,12.19,12.19,0,0,1,4.73,1l.71-2a13.27,13.27,0,0,0-5.39-1.08,7,7,0,0,0-4.51,1.35,4.35,4.35,0,0,0-1.71,3.61,5.12,5.12,0,0,0,1.18,3.51A9.17,9.17,0,0,0,96.49,255a21,21,0,0,1,2.93,1.25,3.85,3.85,0,0,1,1.37,1.21,3.11,3.11,0,0,1,.41,1.67,2.85,2.85,0,0,1-1.16,2.41,5.68,5.68,0,0,1-3.44.87,13.66,13.66,0,0,1-2.82-.3,13.8,13.8,0,0,1-2.64-.8v2.2a12.83,12.83,0,0,0,5.38.9,8.16,8.16,0,0,0,5.11-1.45,4.83,4.83,0,0,0,1.88-4,4.66,4.66,0,0,0-1.16-3.28A10.87,10.87,0,0,0,98.09,253.3Z"/><path class="cls-1" d="M115.94,246.29a10.52,10.52,0,0,1,4.46,1l1-2a12.2,12.2,0,0,0-5.4-1.13,9.87,9.87,0,0,0-5,1.24,8.16,8.16,0,0,0-3.28,3.52,11.77,11.77,0,0,0-1.14,5.32c0,3.24.79,5.73,2.36,7.49a8.56,8.56,0,0,0,6.7,2.63,14.46,14.46,0,0,0,5-.76v-2a17.28,17.28,0,0,1-4.69.74,6.42,6.42,0,0,1-5.15-2.1,8.85,8.85,0,0,1-1.81-6,8.71,8.71,0,0,1,1.88-5.91A6.42,6.42,0,0,1,115.94,246.29Z"/><rect class="cls-1" x="124.89" y="244.53" width="2.28" height="19.65"/><polygon class="cls-1" points="132.56 264.17 143.51 264.17 143.51 262.13 134.85 262.13 134.85 254.9 142.99 254.9 142.99 252.88 134.85 252.88 134.85 246.56 143.51 246.56 143.51 244.53 132.56 244.53 132.56 264.17"/><path class="cls-1" d="M161.08,255.8c0,.57,0,1.5.07,2.82s.1,2.09.12,2.33h-.11l-10.71-16.42h-2.58v19.64H150V253c0-1.62-.07-3.39-.22-5.33h.11l10.74,16.49h2.61V244.53h-2.14Z"/><polygon class="cls-1" points="166.16 246.56 172.38 246.56 172.38 264.17 174.67 264.17 174.67 246.56 180.89 246.56 180.89 244.53 166.16 244.53 166.16 246.56"/><rect class="cls-1" x="183.85" y="244.53" width="2.28" height="19.65"/><polygon class="cls-1" points="191.52 264.17 193.8 264.17 193.8 255.77 201.95 255.77 201.95 253.75 193.8 253.75 193.8 246.56 202.47 246.56 202.47 244.53 191.52 244.53 191.52 264.17"/><rect class="cls-1" x="205.72" y="244.53" width="2.28" height="19.65"/><path class="cls-1" d="M221.81,246.29a10.52,10.52,0,0,1,4.46,1l1-2a12.2,12.2,0,0,0-5.4-1.13,9.87,9.87,0,0,0-5.05,1.24,8.16,8.16,0,0,0-3.28,3.52,11.77,11.77,0,0,0-1.14,5.32c0,3.24.79,5.73,2.36,7.49a8.56,8.56,0,0,0,6.7,2.63,14.46,14.46,0,0,0,5-.76v-2a17.28,17.28,0,0,1-4.69.74,6.42,6.42,0,0,1-5.15-2.1,8.85,8.85,0,0,1-1.81-6,8.71,8.71,0,0,1,1.88-5.91A6.44,6.44,0,0,1,221.81,246.29Z"/><path class="cls-1" d="M243.93,244.53h-6v19.64h5.44q5,0,7.6-2.57t2.64-7.44a8.82,8.82,0,0,0-9.66-9.63Zm5.19,15.66q-2.06,2-6.14,2h-2.79V246.5h3.32q3.81,0,5.73,1.95t1.93,5.79Q251.17,258.19,249.12,260.19Z"/><path class="cls-1" d="M263,244.44l-7.77,19.73h2.31l2.42-6.25h7.88l2.44,6.25h2.37L265,244.44Zm-2.23,11.43,2.31-6.09a25.62,25.62,0,0,0,.85-2.84c.31,1.12.62,2.07.91,2.84l2.29,6.09Z"/><polygon class="cls-1" points="272.93 246.56 279.15 246.56 279.15 264.17 281.44 264.17 281.44 246.56 287.66 246.56 287.66 244.53 272.93 244.53 272.93 246.56"/><path class="cls-1" d="M295.68,244.44l-7.77,19.73h2.32l2.42-6.25h7.87l2.45,6.25h2.36l-7.73-19.73Zm-2.23,11.43,2.31-6.09a25.62,25.62,0,0,0,.85-2.84c.31,1.12.62,2.07.91,2.84l2.29,6.09Z"/><path class="cls-1" d="M325,260.73h-.11l-6.22-16.2h-3.44v19.64h2.11v-12.5c0-1.89-.06-3.53-.19-4.91h.11l6.67,17.41h1.84l6.72-17.39h.1c-.12,1.7-.18,3.28-.18,4.73v12.66h2.28V244.53h-3.41Z"/><path class="cls-1" d="M345.1,244.44l-7.77,19.73h2.31l2.42-6.25h7.87l2.45,6.25h2.37L347,244.44Zm-2.23,11.43,2.31-6.09a23.46,23.46,0,0,0,.84-2.84c.32,1.12.62,2.07.92,2.84l2.28,6.09Z"/><path class="cls-1" d="M370.66,255.8c0,.57,0,1.5.06,2.82s.11,2.09.13,2.33h-.11L360,244.53h-2.58v19.64h2.11V253c0-1.62-.08-3.39-.22-5.33h.11l10.74,16.49h2.6V244.53h-2.13Z"/><path class="cls-1" d="M383.26,244.44l-7.76,19.73h2.31l2.42-6.25h7.87l2.45,6.25h2.36l-7.72-19.73ZM381,255.87l2.31-6.09a25.62,25.62,0,0,0,.85-2.84c.31,1.12.62,2.07.91,2.84l2.29,6.09Z"/><path class="cls-1" d="M404.25,255.92h4.4V262a17.15,17.15,0,0,1-4,.47,7.5,7.5,0,0,1-5.71-2.06q-1.93-2.06-1.94-6a8.28,8.28,0,0,1,2-5.93,7.33,7.33,0,0,1,5.6-2.13,13.1,13.1,0,0,1,5.12,1.12l.89-2a14.84,14.84,0,0,0-5.86-1.16,11.49,11.49,0,0,0-5.42,1.22,8.29,8.29,0,0,0-3.54,3.52,11.26,11.26,0,0,0-1.23,5.37q0,4.79,2.49,7.44a9,9,0,0,0,6.95,2.65,24.15,24.15,0,0,0,3.73-.25,20.32,20.32,0,0,0,3.17-.76v-9.55h-6.68Z"/><polygon class="cls-1" points="415.65 264.17 426.6 264.17 426.6 262.13 417.94 262.13 417.94 254.9 426.08 254.9 426.08 252.88 417.94 252.88 417.94 246.56 426.6 246.56 426.6 244.53 415.65 244.53 415.65 264.17"/><path class="cls-1" d="M440.73,260.73h-.11l-6.22-16.2H431v19.64h2.11v-12.5c0-1.89-.07-3.53-.19-4.91H433l6.66,17.41h1.84l6.72-17.39h.11c-.13,1.7-.19,3.28-.19,4.73v12.66h2.29V244.53H447Z"/><polygon class="cls-1" points="455.81 264.17 466.76 264.17 466.76 262.13 458.09 262.13 458.09 254.9 466.23 254.9 466.23 252.88 458.09 252.88 458.09 246.56 466.76 246.56 466.76 244.53 455.81 244.53 455.81 264.17"/><path class="cls-1" d="M484.32,255.8c0,.57,0,1.5.07,2.82s.1,2.09.12,2.33h-.11l-10.71-16.42h-2.58v19.64h2.11V253c0-1.62-.07-3.39-.21-5.33h.11l10.73,16.49h2.61V244.53h-2.14Z"/><polygon class="cls-1" points="489.4 244.53 489.4 246.56 495.63 246.56 495.63 264.17 497.91 264.17 497.91 246.56 504.13 246.56 504.13 244.53 489.4 244.53"/><path class="cls-1" d="M237,178.14q0-21.88-30.2-21.89H182.57v74.08h20v-27h5.06l15.71,27h22.7l-21.59-32.28Q237,191,237,178.14Zm-30.7,10.18h-3.75V171.4h3.95q10.28,0,10.28,7.65Q216.82,188.32,206.34,188.32Z"/><path class="cls-1" d="M295.76,199.62q0,8-2.76,11.53t-8.89,3.52q-5.73,0-8.67-3.55t-2.93-11.4V156.25H252.39v45q0,14.55,8.13,22.3t23.28,7.75q15.51,0,23.74-8t8.23-22.52V156.25h-20Z"/><path class="cls-1" d="M364.31,171.6a28.68,28.68,0,0,1,8.82,1.32,69.71,69.71,0,0,1,8.2,3.24l6.14-15.75a52.71,52.71,0,0,0-23-5.22,37.65,37.65,0,0,0-19.12,4.68,31.08,31.08,0,0,0-12.47,13.41,44.94,44.94,0,0,0-4.33,20.21q0,18.39,9,28.12t25.71,9.73a51.22,51.22,0,0,0,21-4.11V210.31a95.39,95.39,0,0,1-9.27,3.3,33.35,33.35,0,0,1-9.52,1.36q-16.28,0-16.27-21.38,0-10.28,4-16.13A12.73,12.73,0,0,1,364.31,171.6Z"/><rect class="cls-1" x="398.66" y="156.25" width="20.11" height="74.07"/><path class="cls-1" d="M495,164.76q-9.12-9.67-26.8-9.67t-26.88,9.75q-9.26,9.75-9.25,28.25,0,18.69,9.3,28.47t26.73,9.78q17.67,0,26.85-9.73t9.17-28.42Q504.1,174.44,495,164.76Zm-15.63,44.69q-3.68,5.22-11.27,5.22-15,0-14.95-21.48,0-21.69,15.05-21.69,7.4,0,11.12,5.3T483,193.19Q483,204.23,479.35,209.45Z"/><path class="cls-1" d="M164.1,217v9.26a1.79,1.79,0,0,1-1.79,1.78H96.23a1.79,1.79,0,0,1-1.79-1.78h-3.3a5.09,5.09,0,0,0,5.09,5.08h66.08a5.09,5.09,0,0,0,5.09-5.08V214A11.64,11.64,0,0,1,164.1,217Z"/><path class="cls-1" d="M164.1,160.17V197a11.75,11.75,0,0,1,3.3,3V160.17a5.09,5.09,0,0,0-5.09-5.08H125.17v3.29h37.14A1.79,1.79,0,0,1,164.1,160.17Z"/><path class="cls-1" d="M162.9,198.59l-8.39-4.85h0l-9.54-5.5h0a11,11,0,0,0-15,4l-18.74,32.47h25.44L146,208.58l3,1.72a9.69,9.69,0,1,0,14-11.71Zm-19.36-4.83a4,4,0,1,1,1.46,5.45A4,4,0,0,1,143.54,193.76Zm22.37,17.77a9.07,9.07,0,0,1-16.38-1.44l-.08-.21-.19-.12-3-1.72L149,203.3c.11-.19.21-.39.31-.58l4.87-8.44,8.39,4.85A9.07,9.07,0,0,1,165.91,211.53Z"/><circle class="cls-1" cx="164.06" cy="206.61" r="1.7"/><path class="cls-1" d="M110.08,221.85l-2.69-1.56,1.55-2.69,2.69,1.56Zm3.11-5.39-2.69-1.55,1.55-2.69,2.69,1.55Zm3.11-5.38-2.7-1.56,1.56-2.69,2.69,1.55Zm3.11-5.39-2.7-1.55,1.56-2.7L121,203Zm3.11-5.38-2.7-1.56,1.56-2.69,2.69,1.55Zm3.11-5.39-2.7-1.55,1.56-2.7,2.69,1.56Zm3.09-5.18-2.49-1.86a16.73,16.73,0,0,1,2.32-2.51l2.06,2.33A13.53,13.53,0,0,0,128.72,189.74Zm17.47-3.58a13.43,13.43,0,0,0-2.54-1.14l1-3a16.2,16.2,0,0,1,3.13,1.4Zm-13.32-.07-1.52-2.71a16.2,16.2,0,0,1,3.14-1.36l.94,3A13.85,13.85,0,0,0,132.87,186.09Zm8.06-1.65a12.92,12.92,0,0,0-2.78,0l-.31-3.09a17.09,17.09,0,0,1,3.43,0Z"/><path class="cls-1" d="M111.55,164.52a.68.68,0,0,1,.68-1.1,19.3,19.3,0,0,1,14.68,17.5.67.67,0,0,1-1.19.48Z"/><path class="cls-1" d="M96.59,173a.86.86,0,0,0-1.22,1.09,24.47,24.47,0,0,0,25.08,14.48.86.86,0,0,0,.34-1.6Z"/><circle class="cls-1" cx="149.29" cy="195.67" r="1.7"/><path class="cls-1" d="M166,211.63a47.69,47.69,0,0,1-9-.85l-.3,1.58a51.42,51.42,0,0,0,8.14.86,9.46,9.46,0,0,0,1.18-1.55Z"/></svg>