<svg id="Black" xmlns="http://www.w3.org/2000/svg" viewBox="0 0 595.28 419.53"><defs><style>.cls-1{fill:#1d1d1b;}</style></defs><title>Squared_Black</title><path class="cls-1" d="M384.27,269.23v23.14a4.47,4.47,0,0,1-4.47,4.47H214.58a4.47,4.47,0,0,1-4.46-4.47h-8.24a12.72,12.72,0,0,0,12.7,12.71H379.8a12.72,12.72,0,0,0,12.71-12.71V261.84A29.47,29.47,0,0,1,384.27,269.23Z"/><path class="cls-1" d="M384.27,127.15v92a29.2,29.2,0,0,1,8.24,7.4V127.15a12.72,12.72,0,0,0-12.71-12.7H286.94v8.24H379.8A4.47,4.47,0,0,1,384.27,127.15Z"/><path class="cls-1" d="M381.28,223.21l-21-12.11h0l-23.86-13.78h0a27.54,27.54,0,0,0-37.58,10.1L252,288.61H315.6l23.33-40.43,7.45,4.31a24.24,24.24,0,1,0,34.9-29.28Zm-48.41-12.07a10,10,0,1,1,3.65,13.62A10,10,0,0,1,332.87,211.14Zm55.93,44.41a22.68,22.68,0,0,1-41-3.6l-.19-.53-.49-.28-7.45-4.3L346.56,235c.28-.48.53-1,.78-1.46l12.17-21.08,21,12.12A22.72,22.72,0,0,1,388.8,255.55Z"/><circle class="cls-1" cx="384.17" cy="243.25" r="4.25"/><path class="cls-1" d="M249.21,281.35l-6.73-3.88,3.89-6.73,6.73,3.88ZM257,267.89,250.25,264l3.89-6.73,6.73,3.89Zm7.77-13.46L258,250.54l3.88-6.73,6.74,3.89ZM272.53,241l-6.73-3.88,3.89-6.73,6.73,3.88Zm7.78-13.46-6.74-3.89,3.89-6.73,6.73,3.89ZM288.08,214l-6.73-3.89,3.88-6.73L292,207.3Zm7.74-12.95-6.23-4.65a41.25,41.25,0,0,1,5.81-6.29l5.13,5.83A34.08,34.08,0,0,0,295.82,201.09Zm43.67-9a33.68,33.68,0,0,0-6.35-2.84l2.42-7.39a41.45,41.45,0,0,1,7.82,3.5ZM306.2,192l-3.81-6.77a41.16,41.16,0,0,1,7.85-3.41l2.34,7.42A34.35,34.35,0,0,0,306.2,192Zm20.15-4.14a33.64,33.64,0,0,0-7,0l-.78-7.73a41.6,41.6,0,0,1,8.57,0Z"/><path class="cls-1" d="M252.89,138a1.7,1.7,0,0,1,1.7-2.74A48.32,48.32,0,0,1,291.3,179a1.69,1.69,0,0,1-3,1.2Z"/><path class="cls-1" d="M215.48,159.31a2.15,2.15,0,0,0-3,2.73,61.24,61.24,0,0,0,62.7,36.2,2.15,2.15,0,0,0,.85-4Z"/><circle class="cls-1" cx="347.23" cy="215.91" r="4.25"/><path class="cls-1" d="M389,255.82a120.48,120.48,0,0,1-22.55-2.13l-.75,3.93a123.45,123.45,0,0,0,20.35,2.16,22.55,22.55,0,0,0,3-3.88Z"/></svg>