<svg xmlns="http://www.w3.org/2000/svg" viewBox="0 0 595.28 419.53"><defs><style>.cls-1{fill:#fff;}</style></defs><title>Squared_White</title><g id="White"><path class="cls-1" d="M384.27,269.23v23.14a4.47,4.47,0,0,1-4.47,4.47H214.58a4.47,4.47,0,0,1-4.46-4.47h-8.24a12.72,12.72,0,0,0,12.7,12.71H379.8a12.72,12.72,0,0,0,12.71-12.71V261.84A29.47,29.47,0,0,1,384.27,269.23Z"/><path class="cls-1" d="M384.27,127.15v92a29.2,29.2,0,0,1,8.24,7.4V127.15a12.72,12.72,0,0,0-12.71-12.7H286.94v8.24H379.8A4.47,4.47,0,0,1,384.27,127.15Z"/><path class="cls-1" d="M249.21,281.35l-6.73-3.88,3.89-6.73,6.73,3.88ZM257,267.89,250.25,264l3.89-6.73,6.73,3.89Zm7.77-13.46L258,250.54l3.88-6.73,6.74,3.89ZM272.53,241l-6.73-3.88,3.89-6.73,6.73,3.88Zm7.78-13.46-6.74-3.89,3.89-6.73,6.73,3.89ZM288.08,214l-6.73-3.89,3.88-6.73L292,207.3Zm7.74-12.95-6.23-4.65a41.25,41.25,0,0,1,5.81-6.29l5.13,5.83A34.08,34.08,0,0,0,295.82,201.09Zm43.67-9a33.68,33.68,0,0,0-6.35-2.84l2.42-7.39a41.45,41.45,0,0,1,7.82,3.5ZM306.2,192l-3.81-6.77a41.16,41.16,0,0,1,7.85-3.41l2.34,7.42A34.35,34.35,0,0,0,306.2,192Zm20.15-4.14a33.64,33.64,0,0,0-7,0l-.78-7.73a41.6,41.6,0,0,1,8.57,0Z"/><path class="cls-1" d="M289.58,181.85a2.66,2.66,0,0,1-2-1l-35.42-42.21a2.7,2.7,0,0,1,2.71-4.36A49.32,49.32,0,0,1,292.3,179a2.68,2.68,0,0,1-1.69,2.69A2.9,2.9,0,0,1,289.58,181.85Zm-35.41-45.62a.7.7,0,0,0-.58.34.66.66,0,0,0,.06.81h0l35.42,42.21a.66.66,0,0,0,.79.2.68.68,0,0,0,.44-.7,47.27,47.27,0,0,0-35.94-42.83Z"/><path class="cls-1" d="M268.36,199.62a62.29,62.29,0,0,1-56.84-37.18,3.15,3.15,0,0,1,4.46-4l60.51,34.93a3.16,3.16,0,0,1-1.24,5.87A63.77,63.77,0,0,1,268.36,199.62ZM214.4,160a1.18,1.18,0,0,0-.76.3,1.13,1.13,0,0,0-.29,1.33A60.28,60.28,0,0,0,275,197.25a1.14,1.14,0,0,0,1-.91,1.12,1.12,0,0,0-.55-1.24L215,160.17A1.13,1.13,0,0,0,214.4,160Z"/><path class="cls-1" d="M351.47,215.83a4.3,4.3,0,0,1-.56,2.21,4.27,4.27,0,1,1,.55-2.49,10.25,10.25,0,1,0,0,.28Z"/><path class="cls-1" d="M381.28,223.21l-21-12.11h0l-23.86-13.78h0a27.53,27.53,0,0,0-37.58,10.1L252,288.61H315.6l23.33-40.42,7.45,4.3a24.24,24.24,0,1,0,34.9-29.28Zm-.79,17.91a4.25,4.25,0,1,1,1.55,5.81A4.25,4.25,0,0,1,380.49,241.12Zm-66.05,45.49h-59l45.14-78.18a25.53,25.53,0,0,1,34.84-9.37l.44.25,21.68,12.52L345.6,232.52l0,0,0,.06c-.26.5-.49,1-.72,1.35ZM389,255.9a22.55,22.55,0,0,1-3,3.88,123.45,123.45,0,0,1-20.35-2.16l.75-3.93A120.48,120.48,0,0,0,389,255.82Z"/></g></svg>