<svg xmlns="http://www.w3.org/2000/svg" viewBox="0 0 595.28 419.53"><defs><style>.cls-1{fill:#fff;}</style></defs><title>Squared+Tagline_White</title><g id="White"><path class="cls-1" d="M194.79,326.75a9,9,0,0,1-.71,1.61,1.72,1.72,0,0,1-1.68,1,1.52,1.52,0,0,1-1.28-.6,2.74,2.74,0,0,1-.46-1.67,7.15,7.15,0,0,1,.6-2.78l-1.17-.42a7.83,7.83,0,0,0-.63,3.17,4.2,4.2,0,0,0,.79,2.65,2.58,2.58,0,0,0,2.13,1,3,3,0,0,0,2.06-.69,5.46,5.46,0,0,0,1.37-2.31,10.57,10.57,0,0,1,.74-1.72,2.29,2.29,0,0,1,.7-.81,1.86,1.86,0,0,1,1-.24,1.69,1.69,0,0,1,1.42.68,3.38,3.38,0,0,1,.51,2,7.88,7.88,0,0,1-.18,1.66,8,8,0,0,1-.47,1.55h1.3a7.57,7.57,0,0,0,.53-3.16,4.81,4.81,0,0,0-.86-3,2.83,2.83,0,0,0-2.38-1.11,2.73,2.73,0,0,0-1.93.69A6.37,6.37,0,0,0,194.79,326.75Z"/><path class="cls-1" d="M190.66,316.25a6.13,6.13,0,0,1,.62-2.62l-1.15-.57a7,7,0,0,0-.67,3.17,5.79,5.79,0,0,0,.73,3,4.72,4.72,0,0,0,2.07,1.93,6.9,6.9,0,0,0,3.13.67,6.39,6.39,0,0,0,4.41-1.39,5,5,0,0,0,1.55-3.94,8.25,8.25,0,0,0-.46-3h-1.17a10.29,10.29,0,0,1,.43,2.76,3.77,3.77,0,0,1-1.24,3,6.18,6.18,0,0,1-7,0A3.81,3.81,0,0,1,190.66,316.25Z"/><rect class="cls-1" x="189.63" y="309.64" width="11.56" height="1.34"/><polygon class="cls-1" points="201.19 306.47 201.19 300.03 199.99 300.03 199.99 305.13 195.73 305.13 195.73 300.33 194.55 300.33 194.55 305.13 190.82 305.13 190.82 300.03 189.63 300.03 189.63 306.47 201.19 306.47"/><path class="cls-1" d="M196.26,289.69c.33,0,.89,0,1.66,0l1.37-.07v.07l-9.66,6.3v1.51h11.56v-1.24h-6.57c-1,0-2,0-3.13.13v-.06l9.7-6.32v-1.53H189.63v1.25Z"/><polygon class="cls-1" points="190.82 286.7 190.82 283.04 201.19 283.04 201.19 281.7 190.82 281.7 190.82 278.04 189.63 278.04 189.63 286.7 190.82 286.7"/><rect class="cls-1" x="189.63" y="274.95" width="11.56" height="1.34"/><polygon class="cls-1" points="201.19 271.78 201.19 270.44 196.25 270.44 196.25 265.65 195.05 265.65 195.05 270.44 190.82 270.44 190.82 265.34 189.63 265.34 189.63 271.78 201.19 271.78"/><rect class="cls-1" x="189.63" y="262.08" width="11.56" height="1.34"/><path class="cls-1" d="M190.66,254a6.13,6.13,0,0,1,.62-2.62l-1.15-.57a7.09,7.09,0,0,0-.67,3.18,5.79,5.79,0,0,0,.73,3,4.78,4.78,0,0,0,2.07,1.93,7,7,0,0,0,3.13.66,6.44,6.44,0,0,0,4.41-1.38,5,5,0,0,0,1.55-3.95,8.25,8.25,0,0,0-.46-3h-1.17a10.29,10.29,0,0,1,.43,2.76,3.77,3.77,0,0,1-1.24,3,5.19,5.19,0,0,1-3.5,1.06,5.12,5.12,0,0,1-3.48-1.1A3.8,3.8,0,0,1,190.66,254Z"/><path class="cls-1" d="M189.63,241v3.54h11.56v-3.2a6.13,6.13,0,0,0-1.52-4.47,5.82,5.82,0,0,0-4.37-1.56,5.19,5.19,0,0,0-5.67,5.69Zm9.21-3a5,5,0,0,1,1.19,3.61v1.64h-9.24v-2a4.53,4.53,0,0,1,1.15-3.37,5.67,5.67,0,0,1,6.9.08Z"/><path class="cls-1" d="M189.58,229.71l11.61,4.57v-1.36l-3.68-1.43v-4.63l3.68-1.44V224l-11.61,4.55ZM196.3,231l-3.58-1.36a15.06,15.06,0,0,0-1.67-.5,15.79,15.79,0,0,0,1.67-.54l3.58-1.34Z"/><polygon class="cls-1" points="190.82 223.89 190.82 220.23 201.19 220.23 201.19 218.88 190.82 218.88 190.82 215.22 189.63 215.22 189.63 223.89 190.82 223.89"/><path class="cls-1" d="M189.58,210.5l11.61,4.57v-1.36l-3.68-1.42v-4.63l3.68-1.44v-1.4l-11.61,4.55Zm6.72,1.31-3.58-1.36a14.86,14.86,0,0,0-1.67-.49c.66-.19,1.22-.37,1.67-.54l3.58-1.35Z"/><path class="cls-1" d="M199.16,193.28v.06L189.63,197v2h11.56v-1.24h-7.36c-1.11,0-2.08,0-2.89.11v-.06l10.25-3.93v-1.08l-10.23-4v-.07c1,.08,1.93.11,2.78.11h7.45v-1.34H189.63v2Z"/><path class="cls-1" d="M189.58,181.43,201.19,186v-1.36l-3.68-1.42v-4.64l3.68-1.44v-1.39l-11.61,4.55Zm6.72,1.31-3.58-1.36c-.61-.21-1.16-.38-1.67-.5.66-.18,1.22-.36,1.67-.53L196.3,179Z"/><path class="cls-1" d="M196.26,166.39c.33,0,.89,0,1.66,0l1.37-.07v.06l-9.66,6.31v1.51h11.56v-1.24h-6.57c-1,0-2,0-3.13.13V173l9.7-6.32v-1.54H189.63v1.26Z"/><path class="cls-1" d="M189.58,159l11.61,4.57v-1.36l-3.68-1.42v-4.63l3.68-1.44V153.3l-11.61,4.54Zm6.72,1.32-3.58-1.36a13.18,13.18,0,0,0-1.67-.5c.66-.19,1.22-.36,1.67-.54l3.58-1.34Z"/><path class="cls-1" d="M196.33,146.62V144h3.56a10.21,10.21,0,0,1,.28,2.35,4.42,4.42,0,0,1-1.21,3.35,5,5,0,0,1-3.55,1.15,4.89,4.89,0,0,1-3.49-1.19,4.31,4.31,0,0,1-1.26-3.3,7.76,7.76,0,0,1,.67-3l-1.19-.52a8.74,8.74,0,0,0-.68,3.45,6.69,6.69,0,0,0,.72,3.18,4.86,4.86,0,0,0,2.07,2.09,6.64,6.64,0,0,0,3.16.72,6.17,6.17,0,0,0,4.37-1.46,5.35,5.35,0,0,0,1.57-4.09,14.26,14.26,0,0,0-.15-2.2,13.26,13.26,0,0,0-.45-1.86h-5.62v3.92Z"/><polygon class="cls-1" points="201.19 139.92 201.19 133.48 199.99 133.48 199.99 138.58 195.73 138.58 195.73 133.78 194.55 133.78 194.55 138.58 190.82 138.58 190.82 133.48 189.63 133.48 189.63 139.92 201.19 139.92"/><path class="cls-1" d="M199.16,125.17v.06l-9.53,3.66v2h11.56v-1.24h-7.36c-1.11,0-2.08,0-2.89.11v-.06l10.25-3.92v-1.08l-10.23-4v-.06c1,.07,1.93.11,2.78.11h7.45v-1.34H189.63v2Z"/><polygon class="cls-1" points="201.19 116.3 201.19 109.85 199.99 109.85 199.99 114.95 195.73 114.95 195.73 110.16 194.55 110.16 194.55 114.95 190.82 114.95 190.82 109.85 189.63 109.85 189.63 116.3 201.19 116.3"/><path class="cls-1" d="M196.26,99.52c.33,0,.89,0,1.66,0l1.37-.07v.06l-9.66,6.3v1.52h11.56v-1.24h-6.57c-1,0-2,0-3.13.13v-.07l9.7-6.32V98.26H189.63v1.26Z"/><polygon class="cls-1" points="189.63 96.53 190.82 96.53 190.82 92.87 201.19 92.87 201.19 91.53 190.82 91.53 190.82 87.86 189.63 87.86 189.63 96.53"/><path class="cls-1" d="M244.67,300q0-13-18-13H212.29v44h11.89V315h3l9.33,16H250L237.2,311.87Q244.67,307.68,244.67,300Zm-18.26,6h-2.23V296h2.35q6.12,0,6.12,4.55Q232.65,306.09,226.41,306.09Z"/><path class="cls-1" d="M279.58,312.81q0,4.76-1.64,6.85c-1.1,1.4-2.86,2.09-5.29,2.09a6.28,6.28,0,0,1-5.15-2.11q-1.75-2.1-1.75-6.77V287h-12V313.8q0,8.64,4.84,13.25t13.84,4.61q9.21,0,14.11-4.74t4.9-13.39V287h-11.9Z"/><path class="cls-1" d="M320.33,296.15a17.07,17.07,0,0,1,5.24.78,42.23,42.23,0,0,1,4.88,1.93l3.65-9.37a31.47,31.47,0,0,0-13.65-3.1,22.34,22.34,0,0,0-11.37,2.79,18.43,18.43,0,0,0-7.41,8,26.65,26.65,0,0,0-2.57,12q0,10.93,5.31,16.72t15.29,5.78a30.46,30.46,0,0,0,12.47-2.44V319.16a55.2,55.2,0,0,1-5.51,2,19.93,19.93,0,0,1-5.67.81q-9.66,0-9.67-12.71c0-4.07.8-7.27,2.38-9.59A7.6,7.6,0,0,1,320.33,296.15Z"/><rect class="cls-1" x="340.75" y="287.02" width="11.96" height="44.04"/><path class="cls-1" d="M398,292.08q-5.42-5.74-15.93-5.75t-16,5.8q-5.49,5.79-5.5,16.79t5.53,16.93q5.53,5.82,15.89,5.81,10.51,0,16-5.78t5.46-16.9Q403.44,297.84,398,292.08Zm-9.29,26.57c-1.45,2.07-3.69,3.1-6.7,3.1q-8.88,0-8.89-12.77t8.95-12.89a7.54,7.54,0,0,1,6.61,3.15c1.48,2.1,2.22,5.34,2.22,9.74S390.18,316.58,388.72,318.65Z"/><path class="cls-1" d="M396.68,242.65v23.14a4.47,4.47,0,0,1-4.46,4.47H227a4.47,4.47,0,0,1-4.47-4.47h-8.24A12.72,12.72,0,0,0,227,278.5H392.22a12.72,12.72,0,0,0,12.7-12.71V235.26A29.19,29.19,0,0,1,396.68,242.65Z"/><path class="cls-1" d="M396.68,100.57v92a28.9,28.9,0,0,1,8.24,7.39v-99.4a12.72,12.72,0,0,0-12.7-12.71H299.35V96.1h92.87A4.47,4.47,0,0,1,396.68,100.57Z"/><path class="cls-1" d="M261.63,254.77l-6.73-3.89,3.88-6.73,6.73,3.89Zm7.77-13.46-6.73-3.89,3.89-6.73,6.73,3.88Zm7.77-13.47L270.44,224l3.89-6.74,6.73,3.89ZM285,214.38l-6.73-3.89,3.88-6.73,6.73,3.89Zm7.77-13.46L286,197l3.89-6.73,6.73,3.88Zm7.77-13.47-6.73-3.88,3.89-6.74,6.73,3.89Zm7.75-12.94L302,169.86a41.73,41.73,0,0,1,5.8-6.3L313,169.4A33.56,33.56,0,0,0,308.24,174.51Zm43.67-9a33.72,33.72,0,0,0-6.35-2.85l2.42-7.38a41.32,41.32,0,0,1,7.81,3.49Zm-33.3-.17-3.81-6.77a41.71,41.71,0,0,1,7.85-3.41l2.35,7.41A33.55,33.55,0,0,0,318.61,165.38Zm20.15-4.14a33.63,33.63,0,0,0-6.95,0l-.77-7.74a41.51,41.51,0,0,1,8.56,0Z"/><path class="cls-1" d="M302,155.26a2.64,2.64,0,0,1-2-1l-35.42-42.21a2.63,2.63,0,0,1-.23-3.15,2.67,2.67,0,0,1,2.94-1.2,49.26,49.26,0,0,1,37.46,44.65,2.64,2.64,0,0,1-1.69,2.68A2.61,2.61,0,0,1,302,155.26Zm-35.41-45.61a.7.7,0,0,0-.58.33.68.68,0,0,0,.06.82L301.49,153a.67.67,0,0,0,.79.2.7.7,0,0,0,.44-.7,47.32,47.32,0,0,0-36-42.84Z"/><path class="cls-1" d="M280.77,173a62.27,62.27,0,0,1-56.83-37.17,3.15,3.15,0,0,1,4.46-4l60.5,34.93a3.15,3.15,0,0,1-1.23,5.86A61.62,61.62,0,0,1,280.77,173Zm-53.95-39.61a1.18,1.18,0,0,0-.76.31,1.11,1.11,0,0,0-.29,1.32,60.22,60.22,0,0,0,61.68,35.61,1.15,1.15,0,0,0,.45-2.14l-60.5-34.93A1.18,1.18,0,0,0,226.82,133.42Z"/><path class="cls-1" d="M363.88,189.24a4.12,4.12,0,1,1,0-.28,10.34,10.34,0,1,0,0,.28Z"/><path class="cls-1" d="M393.69,196.63l-21-12.12h0l-23.85-13.77h0a27.53,27.53,0,0,0-37.58,10.11L264.4,262H328l23.34-40.42,7.45,4.3a24.23,24.23,0,1,0,34.89-29.27Zm-.79,17.91a4.25,4.25,0,1,1,1.56,5.81A4.25,4.25,0,0,1,392.9,214.54Zm-66,45.48h-59L313,181.85a25.53,25.53,0,0,1,34.85-9.38l.43.25L370,185.24l-12,20.7,0,.05,0,0c-.25.51-.49,1-.72,1.35Zm74.6-30.7a22.94,22.94,0,0,1-2.95,3.88A125.77,125.77,0,0,1,378.15,231l.75-3.93a120.66,120.66,0,0,0,22.56,2.12Z"/></g></svg>