<?xml version="1.0" encoding="UTF-8" standalone="no"?>
<!DOCTYPE svg PUBLIC "-//W3C//DTD SVG 1.0//EN" "http://www.w3.org/TR/2001/REC-SVG-20010904/DTD/svg10.dtd">
<!-- Created with Inkscape (http://www.inkscape.org/) by Steadfast-->
<svg
   xmlns:svg="http://www.w3.org/2000/svg"
   xmlns="http://www.w3.org/2000/svg"
   version="1.0"
   width="900"
   height="150"
   id="svg2481">
  <defs
     id="defs2483" />
  <g
     id="layer1">
    <g
       transform="matrix(4.6315672,0,0,4.6315672,-939.47016,-1305.5612)"
       id="g2501">
      <path
         d="M 204.99976,284.05791 L 242.72641,284.05791 L 242.72641,293.40361 L 204.99976,293.40361 L 204.99976,284.05791 z"
         id="path12384"
         style="fill:#fbbd09;fill-opacity:1;fill-rule:nonzero;stroke:none" />
      <path
         d="M 204.99976,302.74772 L 242.72641,302.74772 L 242.72641,312.09503 L 204.99976,312.09503 L 204.99976,302.74772 z"
         id="path12386"
         style="fill:#fbbd09;fill-opacity:1;fill-rule:nonzero;stroke:none" />
      <path
         d="M 269.24849,290.75269 C 268.45482,286.83414 267.6258,285.50386 263.17225,285.50386 C 261.28447,285.50386 259.7373,286.03565 258.68336,286.94821 C 257.77562,287.70654 257.3595,288.65927 257.3595,289.83692 C 257.3595,290.90371 257.92824,292.20026 258.6464,292.88307 C 259.62484,293.8358 261.05794,294.67124 263.43574,295.88745 C 266.38067,297.40892 268.60745,298.28613 270.22853,300.1466 C 271.0222,301.06237 271.81587,302.77342 271.81587,304.63871 C 271.81587,306.61646 271.13466,308.40302 269.69995,309.69635 C 268.11582,311.1407 265.62556,312.09343 262.26612,312.09343 C 260.0779,312.09343 257.39806,311.59859 255.21145,310.8001 C 254.86924,308.44158 254.45634,306.84299 253.96471,305.1705 L 255.28535,304.82668 C 256.49514,309.50516 258.60624,310.64747 262.60512,310.64747 C 264.34027,310.64747 265.96295,310.15423 267.13578,309.24007 C 268.3038,308.3259 269.06212,306.99562 269.06212,305.28296 C 269.06212,303.7631 268.6444,302.84733 267.85234,301.89781 C 266.64416,300.45346 264.60536,299.5393 262.41714,298.43716 C 260.11646,297.2579 256.9466,295.54363 255.85249,293.98521 C 255.17289,292.99553 254.71982,291.74237 254.71982,290.33336 C 254.71982,288.69943 255.39782,287.06389 256.98677,285.84447 C 258.34275,284.77767 260.4169,284.05791 263.36183,284.05791 C 265.77658,284.05791 267.73666,284.36316 269.6646,285.12309 C 269.88792,286.67991 270.22853,288.73638 270.57074,290.44904 L 269.24849,290.75269"
         id="path12388"
         style="fill:#535051;fill-opacity:1;fill-rule:nonzero;stroke:none" />
      <path
         d="M 277.58363,302.96461 C 277.58363,300.03414 278.11061,298.1335 279.1292,296.80001 C 280.03212,295.73803 281.28207,295.20464 282.78908,295.20464 C 284.37482,295.20464 285.65529,295.73803 286.52608,296.80001 C 287.54468,298.1335 288.07165,300.03414 288.07165,302.96461 C 288.07165,306.0445 287.429,307.98369 286.48592,309.20151 C 285.61995,310.19279 284.41177,310.8001 282.82604,310.8001 C 281.24191,310.8001 280.03212,310.19279 279.16776,309.20151 C 278.22468,307.98369 277.58363,306.0445 277.58363,302.96461 z M 274.86523,302.92605 C 274.86523,306.38671 275.76976,308.66972 277.23982,310.07551 C 278.75325,311.409 280.56391,311.97936 282.82604,311.97936 C 285.20223,311.97936 287.05305,311.36884 288.56328,310.00161 C 289.99799,308.5926 290.86556,306.34815 290.86556,302.92605 C 290.86556,299.92007 290.03655,297.60011 288.56328,296.11559 C 287.09161,294.70819 285.35325,294.02216 282.82604,294.02216 C 280.41129,294.02216 278.67614,294.70819 277.20447,296.07864 C 275.69425,297.56155 274.86523,299.92007 274.86523,302.92605"
         id="path12390"
         style="fill:#535051;fill-opacity:1;fill-rule:nonzero;stroke:none" />
      <path
         d="M 295.91195,295.66092 L 293.11965,295.66092 L 293.11965,294.4447 L 295.91195,294.4447 L 295.91195,292.04602 C 295.91195,289.72606 296.47749,287.97485 297.72422,286.67991 C 298.62714,285.80751 299.90923,285.20021 301.57207,285.20021 C 303.11764,285.20021 304.02378,285.61633 304.77889,286.11117 C 305.873,286.83414 306.40157,287.78526 306.40157,288.46808 C 306.40157,289.23122 306.02402,289.65055 305.34442,289.65055 C 304.43989,289.65055 304.10089,288.84885 303.68478,288.0134 C 303.26706,287.17635 302.77704,286.37947 301.60903,286.37947 C 300.85391,286.37947 300.25143,286.64296 299.72125,287.21652 C 298.96775,288.12747 298.51629,289.49792 298.51629,292.20026 L 298.51629,294.4447 L 303.30722,294.4447 L 303.30722,295.66092 L 298.51629,295.66092 L 298.51629,308.09776 C 298.51629,310.38237 298.66731,310.60891 301.49817,310.60891 L 301.49817,311.55842 L 293.08109,311.55842 L 293.08109,310.60891 C 295.72237,310.60891 295.91195,310.34382 295.91195,308.02064 L 295.91195,295.66092"
         id="path12392"
         style="fill:#535051;fill-opacity:1;fill-rule:nonzero;stroke:none" />
      <path
         d="M 304.93473,294.78531 C 307.31253,294.55717 308.94325,293.643 309.42845,289.65055 L 310.36992,289.65055 L 310.36992,294.4447 L 314.3688,294.4447 L 314.3688,295.66092 L 310.36992,295.66092 L 310.36992,307.94674 C 310.36992,309.7333 310.8969,310.64747 312.21593,310.64747 C 313.08833,310.64747 313.80327,310.34382 314.55838,309.77186 L 315.16247,310.60891 C 314.18243,311.48291 313.01121,311.97936 311.46403,311.97936 C 309.54091,311.97936 307.76881,311.06519 307.76881,308.09776 L 307.76881,295.66092 L 304.93473,295.66092 L 304.93473,294.78531"
         id="path12394"
         style="fill:#535051;fill-opacity:1;fill-rule:nonzero;stroke:none" />
      <path
         d="M 323.11363,287.36594 C 323.11363,286.34091 323.26466,286.03565 324.2447,286.03565 L 327.82906,286.03565 C 330.47356,286.03565 332.16854,286.64296 333.22731,287.51857 C 334.05793,288.20459 334.69897,289.6875 334.69897,290.98244 C 334.69897,292.80595 334.05793,294.13945 332.96382,295.05201 C 331.60301,296.19271 329.49031,296.68755 326.88758,296.68755 L 323.11363,296.68755 L 323.11363,287.36594 z M 320.32294,307.56758 C 320.32294,310.26509 320.09158,310.45628 317.26554,310.45628 L 317.26554,311.55842 L 329.56582,311.55842 C 333.49079,311.55842 335.71918,310.64747 337.19245,309.20151 C 338.69946,307.75716 339.30354,305.85492 339.30354,303.95268 C 339.30354,301.86086 338.248,300.33779 336.88719,299.2742 C 335.26611,298.01622 333.07789,297.37197 330.62458,297.29485 L 330.62458,297.21773 C 333.00238,296.87552 334.58651,296.11559 335.71918,295.09057 C 337.11533,293.8358 337.60374,292.15848 337.60374,290.71253 C 337.60374,288.77334 336.62531,287.25347 335.1906,286.26379 C 333.1518,284.89335 330.88646,284.5897 327.41616,284.5897 L 317.26554,284.5897 L 317.26554,285.69344 C 320.09158,285.69344 320.32294,285.88142 320.32294,288.62231 L 320.32294,307.56758 z M 323.11363,298.1335 L 327.79372,298.1335 C 330.88646,298.1335 332.96382,298.6653 334.28607,299.69514 C 335.64045,300.72016 336.36182,302.19986 336.36182,303.87396 C 336.36182,305.85492 335.79308,307.26393 334.88695,308.21504 C 333.60326,309.54693 331.86971,310.11728 329.18826,310.11728 L 324.50979,310.11728 C 323.33856,310.11728 323.11363,309.84898 323.11363,308.252 L 323.11363,298.1335"
         id="path12396"
         style="fill:#535051;fill-opacity:1;fill-rule:nonzero;stroke:none" />
      <path
         d="M 351.85446,308.55725 C 350.90816,309.50516 349.62768,310.5334 347.77686,310.5334 C 346.6458,310.5334 345.85373,310.15423 345.28499,309.61762 C 344.72107,309.05049 344.45758,308.21504 344.45758,307.22055 C 344.45758,305.47094 345.51313,304.48447 346.98319,303.68598 C 348.37934,302.81359 350.23177,302.27698 351.85446,301.82391 L 351.85446,308.55725 z M 354.45879,299.31116 C 354.45879,297.63866 354.19209,296.61043 353.21205,295.50829 C 352.26897,294.4447 350.94672,294.02216 348.68299,294.02216 C 346.68275,294.02216 345.36211,294.51861 344.38046,295.09057 C 343.17389,295.81194 342.42039,296.83857 342.42039,297.75113 C 342.42039,298.32469 342.75456,298.85488 343.47272,298.85488 C 344.268,298.85488 344.607,298.47571 344.79336,297.94232 C 345.13397,297.10366 345.47618,296.45619 345.9678,296.07864 C 346.6458,295.54363 347.3993,295.20464 348.53197,295.20464 C 349.77871,295.20464 350.68484,295.5838 351.24716,296.34534 C 351.73878,296.9912 351.85446,298.1335 351.85446,299.0059 L 351.85446,300.64304 L 349.62768,301.17644 C 347.21133,301.70984 345.32516,302.46816 344.04147,303.34538 C 342.38183,304.44752 341.70223,305.81636 341.70223,307.56758 C 341.70223,309.01193 342.30471,310.11728 343.21245,310.83865 C 344.19249,311.63875 345.47618,311.97936 346.68275,311.97936 C 349.17462,311.97936 350.68484,311.10535 351.96371,309.88754 L 352.07778,309.88754 C 352.41999,311.1407 353.21205,311.82673 354.5327,311.82673 C 355.51434,311.82673 356.19233,311.59859 356.83338,311.29493 L 356.60684,310.42093 C 356.3064,310.60891 355.96259,310.68442 355.59146,310.68442 C 354.83635,310.68442 354.45879,309.92288 354.45879,308.21504 L 354.45879,299.31116"
         id="path12398"
         style="fill:#535051;fill-opacity:1;fill-rule:nonzero;stroke:none" />
      <path
         d="M 373.66433,308.17488 C 373.66433,310.30365 373.81535,310.60891 375.51355,310.60891 L 375.51355,311.55842 L 369.13526,311.55842 L 369.13526,310.60891 C 370.94753,310.60891 371.06,310.38237 371.06,308.09776 L 371.06,299.61641 C 371.06,298.1335 370.87041,296.91569 370.15547,296.15415 C 369.66384,295.66092 368.98424,295.39422 367.96725,295.39422 C 366.38152,295.39422 364.68332,296.83857 363.1731,298.93199 L 363.1731,308.09776 C 363.1731,310.38237 363.21005,310.60891 364.98376,310.60891 L 364.98376,311.55842 L 358.38216,311.55842 L 358.38216,310.60891 C 360.41774,310.60891 360.56877,310.38237 360.56877,308.09776 L 360.56877,298.85488 C 360.56877,296.64899 360.37919,296.38389 358.38216,296.41924 L 358.38216,295.5838 C 360.04019,295.3171 361.32388,294.93633 362.56901,294.02216 L 362.94656,294.25191 L 363.09598,297.18078 L 363.1731,297.18078 C 364.68332,295.24159 366.60644,294.02216 368.6822,294.02216 C 370.30649,294.02216 371.4745,294.4447 372.30352,295.24159 C 373.17431,296.07864 373.66433,297.44908 373.66433,299.46218 L 373.66433,308.17488"
         id="path12400"
         style="fill:#535051;fill-opacity:1;fill-rule:nonzero;stroke:none" />
      <path
         d="M 382.50716,302.19986 L 387.9038,296.91569 C 388.9224,295.96617 389.18749,295.39422 387.37522,295.39422 L 387.37522,294.4447 L 392.96144,294.4447 L 392.96144,295.39422 C 391.86733,295.43278 391.26164,295.69465 390.39567,296.53652 L 386.43214,300.33779 L 392.20633,309.16616 C 393.03695,310.49644 393.86757,310.64747 395.00024,310.60891 L 395.00024,311.55842 L 390.6961,311.55842 L 384.54757,301.97333 L 382.43165,304.06836 L 382.43165,308.09776 C 382.43165,310.30365 382.50716,310.60891 384.58452,310.60891 L 384.58452,311.55842 L 377.5652,311.55842 L 377.5652,310.60891 C 379.7502,310.60891 379.82571,310.30365 379.82571,308.09776 L 379.82571,290.06666 C 379.82571,287.86078 379.60079,287.59568 377.5652,287.59568 L 377.5652,286.75863 C 379.41121,286.49193 380.6965,286.07421 382.09265,285.20021 L 382.43165,285.42675 L 382.43165,302.19986 L 382.50716,302.19986"
         id="path12402"
         style="fill:#535051;fill-opacity:1;fill-rule:nonzero;stroke:none" />
    </g>
  </g>
</svg>
