<?xml version="1.0" encoding="UTF-8" standalone="no"?>
<svg
   xmlns:dc="http://purl.org/dc/elements/1.1/"
   xmlns:cc="http://creativecommons.org/ns#"
   xmlns:rdf="http://www.w3.org/1999/02/22-rdf-syntax-ns#"
   xmlns:svg="http://www.w3.org/2000/svg"
   xmlns="http://www.w3.org/2000/svg"
   xmlns:sodipodi="http://sodipodi.sourceforge.net/DTD/sodipodi-0.dtd"
   xmlns:inkscape="http://www.inkscape.org/namespaces/inkscape"
   inkscape:version="1.0beta2 (unknown)"
   sodipodi:docname="openstack-logo-square.svg"
   id="svg27"
   version="1.1"
   viewBox="0 0 116.2381 113.7608"
   height="113.7608"
   width="116.2381">
  <metadata
     id="metadata31">
    <rdf:RDF>
      <cc:Work
         rdf:about="">
        <dc:format>image/svg+xml</dc:format>
        <dc:type
           rdf:resource="http://purl.org/dc/dcmitype/StillImage" />
        <dc:title>OpenStack_Logo2016</dc:title>
      </cc:Work>
    </rdf:RDF>
  </metadata>
  <sodipodi:namedview
     inkscape:current-layer="svg27"
     inkscape:window-maximized="1"
     inkscape:window-y="25"
     inkscape:window-x="0"
     inkscape:cy="113.4998"
     inkscape:cx="66.2287"
     inkscape:zoom="2.6387665"
     showgrid="false"
     id="namedview29"
     inkscape:window-height="1005"
     inkscape:window-width="1920"
     inkscape:pageshadow="2"
     inkscape:pageopacity="0"
     guidetolerance="10"
     gridtolerance="10"
     objecttolerance="10"
     borderopacity="1"
     inkscape:document-rotation="0"
     bordercolor="#666666"
     pagecolor="#ffffff" />
  <!-- Generator: Sketch 41.1 (35376) - http://www.bohemiancoding.com/sketch -->
  <title
     id="title2">OpenStack_Logo2016</title>
  <desc
     id="desc4">Created with Sketch.</desc>
  <defs
     id="defs6" />
  <g
     transform="translate(-168.7713,-2e-4)"
     id="g72">
    <path
       style="fill-rule:evenodd;stroke:none;stroke-width:1"
       d="m 274.2093,2e-4 h -94.638 c -5.94,0 -10.8,4.86 -10.8,10.8 v 25.45 h 26.25 v -4.159 c 0,-3.226 2.616,-5.841 5.842,-5.841 h 52.055 c 3.226,0 5.841,2.615 5.841,5.841 v 4.159 h 26.25 v -25.45 c 0,-5.94 -4.86,-10.8 -10.8,-10.8 z"
       id="Fill-26"
       fill="#ED1844"
       inkscape:connector-curvature="0" />
    <path
       style="fill-rule:evenodd;stroke:none;stroke-width:1"
       d="m 258.7594,81.67 c 0,3.226 -2.615,5.842 -5.841,5.842 h -52.055 c -3.226,0 -5.842,-2.616 -5.842,-5.842 v -4.158 h -26.25 v 25.449 c 0,5.941 4.86,10.8 10.8,10.8 h 94.638 c 5.94,0 10.8,-4.859 10.8,-10.8 V 77.512 h -26.25 z"
       id="Fill-28"
       fill="#ED1844"
       inkscape:connector-curvature="0" />
    <polygon
       style="fill-rule:evenodd;stroke:none;stroke-width:1"
       id="Fill-30"
       fill="#ED1844"
       points="195.022,43.756 168.772,43.756 168.772,70.006 195.022,70.006 " />
    <polygon
       style="fill-rule:evenodd;stroke:none;stroke-width:1"
       id="Fill-32"
       fill="#ED1844"
       points="285.009,43.756 258.759,43.756 258.759,70.006 285.009,70.006 " />
  </g>
</svg>
