<?xml version="1.0" encoding="UTF-8" standalone="no"?>
<svg
   height="237.20085"
   width="923.0769"
   viewBox="-36.7638 -15.745175 245.092 28.010767"
   version="1.1"
   id="svg1"
   sodipodi:docname="Spring-Logo.svg"
   inkscape:version="1.4 (e7c3feb100, 2024-10-09)"
   xmlns:inkscape="http://www.inkscape.org/namespaces/inkscape"
   xmlns:sodipodi="http://sodipodi.sourceforge.net/DTD/sodipodi-0.dtd"
   xmlns="http://www.w3.org/2000/svg"
   xmlns:svg="http://www.w3.org/2000/svg">
  <defs
     id="defs1" />
  <sodipodi:namedview
     id="namedview1"
     pagecolor="#ffffff"
     bordercolor="#000000"
     borderopacity="0.25"
     inkscape:showpageshadow="2"
     inkscape:pageopacity="0.0"
     inkscape:pagecheckerboard="true"
     inkscape:deskcolor="#d1d1d1"
     inkscape:zoom="0.99375"
     inkscape:cx="461.38365"
     inkscape:cy="118.23899"
     inkscape:window-width="1920"
     inkscape:window-height="1005"
     inkscape:window-x="0"
     inkscape:window-y="28"
     inkscape:window-maximized="1"
     inkscape:current-layer="svg1" />
  <path
     d="m 44.234586,10.764373 c -0.7515,-0.4058 -1.3296,-1.2745999 -1.3296,-2.4323999 0,-1.561 1.214,-2.8266 2.8385,-2.8266 0.5755,0 1.0984,0.1694 1.5006,0.4011 2.9546,1.9688 6.0218,2.953 8.7953,2.953 3.0083,0 4.7437,-1.2743 4.7437,-3.302 v -0.1146 c 0,-2.3724 -3.238,-3.1812 -6.8281,-4.2796 -4.5104,-1.27400001 -9.5443,-3.1235 -9.5443,-8.9683 v -0.1172 c 0,-5.7869001 4.802,-9.3150001 10.8776,-9.3150001 3.2411,0 6.6531,0.927 9.6042,2.4869 0.986405,0.5224 1.677005,1.4485 1.677005,2.6604 0,1.6219 -1.2708,2.8396001 -2.890605,2.8396001 -0.5818,0 -0.9286,-0.1161 -1.3864,-0.349 -2.4922,-1.2745001 -5.037,-2.0858001 -7.1771,-2.0858001 -2.7213,0 -4.2839,1.276 -4.2839,3.0130001 v 0.1125 c 0,2.2573 3.2979,3.1806 6.8864,4.3401 4.4552,1.3896 9.489105,3.41349999 9.489105,8.9099 v 0.1172 c 0,6.4217999 -4.978505,9.6004999 -11.341605,9.6004999 -3.874,0 -8.098,-1.211 -11.6308,-3.6437 M 94.329391,-1.3841269 v -0.1173 c 0,-5.8989 -3.9932,-9.7760001 -8.7353,-9.7760001 -4.7443,0 -8.91,3.9344001 -8.91,9.7760001 v 0.1172 c 0,5.8438 4.1657,9.7819 8.91,9.7819 4.802,0 8.7353,-3.7636 8.7353,-9.7819 m -24.4744,-12.3260001 c 0,-1.9636 1.5025,-3.5281 3.4739,-3.5281 1.9657,0 3.5281,1.5645 3.5281,3.5281 v 2.086 c 2.2568,-3.1808 5.4381,-5.7276 10.4152,-5.7276 7.1733,0 14.175199,5.6676 14.175199,15.8504001 v 0.1172 c 0,10.1267 -6.943499,15.8531999 -14.175199,15.8531999 -5.0912,0 -8.274,-2.5485 -10.4152,-5.3775999 V 19.904873 c 0,1.9745 -1.5624,3.4792 -3.5281,3.4792 -1.9083,0 -3.4739,-1.5047 -3.4739,-3.4792 v -33.615 m 34.244399,0.004 c 0,-1.9634 1.5,-3.528 3.468,-3.528 1.972,0 3.532,1.5646 3.532,3.528 v 1.6834 c 0.3493,-2.6219 4.6267,-5.2115 7.6947,-5.2115 2.1973,0 3.472,1.4454 3.472,3.4694 0,1.85 -1.216,3.0672 -2.7787,3.3557 -4.976,0.8683001 -8.388,5.2224001 -8.388,11.24630009 V 10.930873 c 0,1.9115 -1.56,3.4728 -3.532,3.4728 -1.908,0 -3.468,-1.5052 -3.468,-3.4728 v -24.637 m 20.8147,0.0142 c 0,-1.9667 1.5093,-3.5313 3.4733,-3.5313 1.9667,0 3.5293,1.5646 3.5293,3.5313 v 24.6287 c 0,1.9645 -1.5626,3.467 -3.5293,3.467 -1.9107,0 -3.4733,-1.5025 -3.4733,-3.467 v -24.6287 m 10.532,0.0135 c 0,-1.9667 1.5053,-3.5276 3.4693,-3.5276 1.9693,0 3.5307,1.5609 3.5307,3.5276 v 1.4365 c 1.9706,-2.836 4.8013,-4.9819 9.5453,-4.9819 6.8853,0 10.88,4.6308 10.88,11.6887001 V 10.932473 c 0,1.9661 -1.5067,3.4724 -3.4733,3.4724 -1.9667,0 -3.528,-1.5063 -3.528,-3.4724 V -3.3935269 c 0,-4.7421 -2.372,-7.4636001 -6.5387,-7.4636001 -4.0493,0 -6.8853,2.8350001 -6.8853,7.5830001 V 10.932473 c 0,1.9661 -1.5614,3.4724 -3.5307,3.4724 -1.908,0 -3.4693,-1.5063 -3.4693,-3.4724 v -24.611 m 45.9306,22.0121001 c -4.8066,0 -8.7373,-3.762 -8.7373,-9.7802 v -0.1136 c 0,-5.9005 3.9893,-9.7776001 8.7373,-9.7776001 4.7454,0 8.9107,3.9355001 8.9107,9.7776001 v 0.1136 c 0,5.8452 -4.1653,9.7802 -8.9107,9.7802 m 12.26,-25.6323001 c -1.964,0 -3.5266,1.5656 -3.5266,3.5297 v 2.0823 c -2.2587,-3.1808 -5.4374,-5.7261 -10.4107,-5.7261 -7.1787,0 -14.1773,5.6677 -14.1773,15.8526001 v 0.1136 c 0,10.1266 6.9413,15.8514999 14.1773,15.8514999 5.0613,0 8.236,-2.5181 10.3787,-5.3332999 -0.3507,5.5015999 -3.7187,8.4062999 -9.6267,8.4062999 -3.5267,0 -6.5947,-0.8709 -9.376,-2.436 -0.3467,-0.1693 -0.7453,-0.2838 -1.268,-0.2838 -1.62,0 -2.9547,1.3323 -2.9547,2.8895 0,1.3318 0.7534,2.3152 1.972,2.7782 3.6974,1.7942 7.5134,2.7203 11.7974,2.7203 5.5,0 9.7826,-1.3297 12.56,-4.1083 2.54,-2.548 3.9293,-6.362 3.9293,-11.5140999 V -13.769027 c 0,-1.9641 -1.504,-3.5297 -3.4747,-3.5297 m -61.692,-8.3552 c 0,1.9468 -1.5813,3.5297 -3.5306,3.5297 -1.9507,0 -3.528,-1.5829 -3.528,-3.5297 0,-1.9521 1.5773,-3.5281 3.528,-3.5281 1.9493,0 3.5306,1.576 3.5306,3.5281 m -111.198604,37.9667 c -7.7615,10.3411 -24.3411001,6.8505 -34.9708,7.3526 0,0 -1.8818,0.1046 -3.7771,0.4166 0,0 0.7167,-0.3057 1.6307,-0.6208 7.4656999,-2.5818 10.9937999,-3.1006 15.53019988,-5.4307 C 7.6825859,9.6643731 16.165386,0.15377309 17.891386,-9.7258269 c -3.2443,9.50199999 -13.1115001,17.6802 -22.0959001,21.0010999 -6.1493999,2.2692 -17.2701999,4.4776 -17.2717999,4.4785 0.0052,0.0079 -0.4432,-0.2328 -0.4495,-0.238 -7.563,-3.6796 -7.7812,-20.0597999 5.9547,-25.3399999 6.0223999,-2.3166001 11.7828999,-1.0442001 18.2932999,-2.5938001 6.9437,-1.651 14.9859001,-6.8558 18.2547001,-13.6604 3.6645,10.8693 8.0666,27.8745001 0.1692,38.3912 z m 0.1349,-41.7594 c -0.924,2.1952 -2.0516,4.1734 -3.3516,5.9427 -5.7219,-5.8724 -13.7083001,-9.5312 -22.5359001,-9.5312 -17.3645999,0 -31.4900999,14.127 -31.4900999,31.4885001 0,9.1015 3.8849,17.3098999 10.0786,23.0634999 l 0.6896,0.611 c -1.1515,-0.9391 -1.3286,-2.6303 -0.3953,-3.7829 0.939,-1.153 2.6318,-1.3317 3.7839,-0.3979 1.1552,0.936 1.3312,2.6313 0.3959,3.786 -0.9319,1.1552 -2.6277,1.3297 -3.7813,0.3974 l 0.4692,0.4156 c 5.4787,4.613 12.5411,7.3995 20.2494999,7.3995 16.5979001,0 30.2271001,-12.9167 31.3938001,-29.21979991 0.864,-7.98239999 -1.4938,-18.11820009 -5.5063,-30.17240009 m 184.429104,14.3531 h -1.1 v 1.4563 h 1.1 c 0.356,0 0.7453,-0.2875 0.7453,-0.711 0,-0.4578 -0.3893,-0.7453 -0.7453,-0.7453 z m 0.6786,3.6052 -1.068,-1.625 h -0.7106 v 1.625 h -0.5747 v -4.1135 h 1.6747 c 0.6946,0 1.3386,0.4922 1.3386,1.2536 0,0.9135 -0.8146,1.2187 -1.0506,1.2187 l 1.1013,1.6412 z m -0.9826,-5.112 c -1.6934,0 -3.048,1.3541 -3.048,3.048 0,1.675 1.3546,3.0468 3.048,3.0468 1.6746,0 3.0466,-1.3719 3.0466,-3.0468 0,-1.6939 -1.372,-3.048 -3.0466,-3.048 z m 0,6.6370001 c -1.9814,0 -3.5894,-1.6089001 -3.5894,-3.5890001 0,-1.999 1.608,-3.5901 3.5894,-3.5901 1.9973,0 3.5893,1.591 3.5893,3.5901 0,1.9801 -1.592,3.5890001 -3.5893,3.5890001"
     fill="#5fb832"
     id="path1" />
</svg>
