<?xml version="1.0" encoding="UTF-8" standalone="no"?>
<svg
   xmlns:dc="http://purl.org/dc/elements/1.1/"
   xmlns:cc="http://creativecommons.org/ns#"
   xmlns:rdf="http://www.w3.org/1999/02/22-rdf-syntax-ns#"
   xmlns:svg="http://www.w3.org/2000/svg"
   xmlns="http://www.w3.org/2000/svg"
   xmlns:sodipodi="http://sodipodi.sourceforge.net/DTD/sodipodi-0.dtd"
   xmlns:inkscape="http://www.inkscape.org/namespaces/inkscape"
   inkscape:version="1.0beta2 (unknown)"
   height="34.230263"
   width="177.14"
   sodipodi:docname="terraform-logo-text.svg"
   id="svg12"
   version="1.1"
   viewBox="0 0 177.14 34.230263">
  <metadata
     id="metadata18">
    <rdf:RDF>
      <cc:Work
         rdf:about="">
        <dc:format>image/svg+xml</dc:format>
        <dc:type
           rdf:resource="http://purl.org/dc/dcmitype/StillImage" />
        <dc:title></dc:title>
      </cc:Work>
    </rdf:RDF>
  </metadata>
  <defs
     id="defs16" />
  <sodipodi:namedview
     inkscape:current-layer="svg12"
     inkscape:window-maximized="1"
     inkscape:window-y="25"
     inkscape:window-x="0"
     inkscape:cy="72.741324"
     inkscape:cx="44.515964"
     inkscape:zoom="3.2549801"
     showgrid="false"
     id="namedview14"
     inkscape:window-height="1005"
     inkscape:window-width="1920"
     inkscape:pageshadow="2"
     inkscape:pageopacity="0"
     guidetolerance="10"
     gridtolerance="10"
     objecttolerance="10"
     borderopacity="1"
     inkscape:document-rotation="0"
     bordercolor="#666666"
     pagecolor="#ffffff" />
  <path
     inkscape:connector-curvature="0"
     id="path2"
     d="M 8.89,7.2201164 H 0 v -5.31 h 23.81 v 5.31 h -8.9 V 33.750116 h -6"
     fill-rule="nonzero"
     fill="#000"
     class="text" />
  <path
     inkscape:connector-curvature="0"
     id="path4"
     d="m 29.3,29.450116 c 2.415,-0.012 4.814,-0.383 7.12,-1.1 l 0.91,4.4 c -2.745,0.99 -5.642,1.49 -8.56,1.48 -7.31,0 -9.85,-3.39 -9.85,-9 v -6.15 c 0,-4.92 2.2,-9.08 9.66,-9.08 7.46,0 9.13,4.35 9.13,9.37 v 5 h -13 v 1.2 c 0.05,2.78 1.05,3.88 4.59,3.88 z m -4.54,-9.77 h 7.41 v -1.18 c 0,-2.2 -0.67,-3.73 -3.54,-3.73 -2.87,0 -3.87,1.53 -3.87,3.73 v 1.18 z m 28.54,-4.33 c -2.148,0.97 -4.217,2.102 -6.19,3.39 v 15 h -5.83 v -23.27 h 4.92 l 0.38,2.58 c 1.897,-1.284 3.955,-2.313 6.12,-3.0599996 z m 14.24,0 c -2.14,0.97 -4.204,2.103 -6.17,3.39 v 15 h -5.83 v -23.27 h 4.92 l 0.38,2.58 c 1.897,-1.284 3.955,-2.313 6.12,-3.0599996 z m 19.51,18.4 h -4.78 l -0.43,-1.58 c -2.062,1.342 -4.47,2.058 -6.93,2.06 -4.25,0 -6.07,-2.92 -6.07,-6.93 0,-4.73 2.06,-6.55 6.79,-6.55 h 5.59 v -2.44 c 0,-2.58 -0.72,-3.49 -4.45,-3.49 -2.17,0.024 -4.33,0.266 -6.45,0.72 l -0.72,-4.45 c 2.606,-0.72 5.296,-1.09 8,-1.0999996 7.31,0 9.47,2.5799996 9.47,8.4099996 z m -5.83,-8.8 h -4.3 c -1.91,0 -2.44,0.53 -2.44,2.29 0,1.76 0.53,2.34 2.34,2.34 1.544,-0.024 3.058,-0.436 4.4,-1.2 z M 104.97,5.1601164 c -1.1,-0.237 -2.224,-0.364 -3.35,-0.38 -2.29,0 -2.63,1 -2.63,2.77 v 2.9199996 h 5.93 l -0.33,4.64 H 99 v 18.64 h -5.83 v -18.64 h -3.73 v -4.64 h 3.73 V 7.2201164 c 0,-4.83 2.25,-7.22000000339 7.41,-7.22000000339 1.69,-0.005999997 3.372,0.22000000339 5,0.67000000339 z m 11.38,29.0699996 c -8,0 -10.13,-4.4 -10.13,-9.18 v -5.88 c 0,-4.78 2.15,-9.1799996 10.13,-9.1799996 7.98,0 10.13,4.3999996 10.13,9.1799996 v 5.88 c 0.01,4.78 -2.15,9.18 -10.13,9.18 z m 0,-19.27 c -3.11,0 -4.3,1.39 -4.3,4 v 6.26 c 0,2.63 1.2,4 4.3,4 3.1,0 4.3,-1.39 4.3,-4 v -6.24 c 0,-2.63 -1.19,-4.02 -4.3,-4.02 z m 25.14,0.39 c -2.14,0.97 -4.204,2.103 -6.17,3.39 v 15 h -5.83 v -23.27 h 4.92 l 0.38,2.58 c 1.897,-1.284 3.954,-2.313 6.12,-3.0599996 z m 16.02,18.4 v -16.25 c 0,-1.24 -0.53,-1.86 -1.86,-1.86 -2.137,0.254 -4.2,0.934 -6.07,2 v 16.11 h -5.83 v -23.28 h 4.45 l 0.57,2 c 2.906,-1.47 6.088,-2.315 9.34,-2.4799996 1.843,-0.174 3.6,0.8199996 4.4,2.4899996 2.91,-1.49 6.104,-2.34 9.37,-2.4899996 3.87,0 5.26,2.7199996 5.26,6.8799996 v 16.88 h -5.83 v -16.25 c 0,-1.24 -0.53,-1.86 -1.86,-1.86 -2.14,0.236 -4.208,0.917 -6.07,2 v 16.11 z"
     fill-rule="nonzero"
     fill="#000"
     class="text" />
</svg>
