<?xml version="1.0" encoding="UTF-8" standalone="no"?>
<!-- Created with Inkscape (http://www.inkscape.org/) -->

<svg
   width="155.31042mm"
   height="70.115822mm"
   viewBox="0 0 155.31042 70.115822"
   version="1.1"
   id="svg93"
   inkscape:version="1.1.2 (0a00cf5339, 2022-02-04)"
   sodipodi:docname="slurm-separate-text.svg"
   xmlns:inkscape="http://www.inkscape.org/namespaces/inkscape"
   xmlns:sodipodi="http://sodipodi.sourceforge.net/DTD/sodipodi-0.dtd"
   xmlns="http://www.w3.org/2000/svg"
   xmlns:svg="http://www.w3.org/2000/svg">
  <sodipodi:namedview
     id="namedview95"
     pagecolor="#ffffff"
     bordercolor="#666666"
     borderopacity="1.0"
     inkscape:pageshadow="2"
     inkscape:pageopacity="0.0"
     inkscape:pagecheckerboard="0"
     inkscape:document-units="mm"
     showgrid="false"
     inkscape:zoom="0.53362093"
     inkscape:cx="327.94816"
     inkscape:cy="153.66714"
     inkscape:window-width="1920"
     inkscape:window-height="1005"
     inkscape:window-x="0"
     inkscape:window-y="25"
     inkscape:window-maximized="1"
     inkscape:current-layer="layer1" />
  <defs
     id="defs90" />
  <g
     inkscape:label="Layer 1"
     inkscape:groupmode="layer"
     id="layer1"
     transform="translate(-18.53511,-107.74008)">
    <path
       d="m 51.230157,161.74887 v 13.02115 h 1.053734 v -4.46582 c 0.627222,0.4526 3.170235,2.27005 4.691626,3.33682 1.149073,0.74967 1.113949,1.03267 1.129001,1.129 h 1.40498 c 0,-0.6764 -0.766717,-1.01359 -1.63078,-1.60567 -0.52486,-0.3623 -4.415647,-3.08594 -4.415647,-3.08594 0,0 3.788425,-2.49987 4.315293,-2.86015 0.862055,-0.59309 1.555512,-0.92829 1.555512,-1.60568 h -1.354802 c -0.01204,0.0933 0.04721,0.37833 -1.103913,1.12898 -1.439098,1.0146 -3.813514,2.70661 -4.59127,3.26157 v -8.25426 z m 9.885031,0 v 13.02115 h 1.053735 v -13.02115 z m 31.461498,0 v 10.93878 0.0251 0.12544 c 7.94e-4,0.16256 -0.02706,0.45762 -0.125444,0.65231 -0.117417,0.1937 -0.163579,0.28601 -0.476689,0.30106 h -5.168315 c -0.311103,-0.0151 -0.35827,-0.10736 -0.47669,-0.30106 -0.0733,-0.14553 -0.113403,-0.3382 -0.125444,-0.50179 v -5.34392 -0.0251 -0.10036 c -0.0032,-0.16759 0.02609,-0.48271 0.125444,-0.67741 0.11842,-0.19468 0.162576,-0.27999 0.47669,-0.30105 h 5.168315 v -1.05375 h -5.168315 c -0.712526,-0.018 -1.243407,0.45561 -1.430068,0.90321 -0.207738,0.44357 -0.22279,0.87712 -0.225801,1.129 v 0.17563 4.9425 0.20071 0.17563 0.17563 h 0.02506 c 0.02408,0.22378 0.07426,0.50578 0.200711,0.77774 0.186663,0.44458 0.717544,0.89617 1.43007,0.87813 h 5.168315 0.05018 c 0.689444,0 1.193229,-0.44257 1.37989,-0.87813 0.205729,-0.44458 0.224798,-0.88011 0.2258,-1.129 v -0.20071 -10.88859 H 92.57666 Z m -47.267513,3.78844 c -0.5798,0.0835 -0.98901,0.48821 -1.154091,0.8781 -0.207736,0.44357 -0.220782,0.87812 -0.2258,1.129 v 0.20071 7.0249 h 1.053734 v -7.07506 -0.0251 -0.12543 c -0.0016,-0.1686 0.02706,-0.48372 0.125444,-0.67742 0.116414,-0.19468 0.139497,-0.25691 0.451602,-0.27596 h 3.91387 v -1.05375 h -3.91387 c -0.08907,-0.003 -0.168061,-0.0119 -0.250889,0 z m 57.252897,0 c -0.71051,-0.018 -1.23838,0.45762 -1.43006,0.90321 -0.20674,0.44455 -0.22279,0.8791 -0.2258,1.12897 v 0.17563 7.04999 h 1.07882 v -7.10015 l -0.0251,-0.0251 v -0.10035 c 0,-0.16658 0.0271,-0.4807 0.12545,-0.67741 0.1144,-0.19469 0.16558,-0.2589 0.47669,-0.27597 h 4.0644 v 8.17899 h 1.05374 v -8.17899 h 4.11458 c 0.3121,0.0169 0.33519,0.0803 0.4516,0.27597 0.0973,0.19671 0.12845,0.51083 0.12544,0.67741 v 0.10035 0.0251 7.10015 h 1.05374 v -7.04999 -0.17563 c -0.003,-0.24987 -0.018,-0.68543 -0.2258,-1.12897 -0.18667,-0.44559 -0.69145,-0.92128 -1.40498,-0.90321 z m 25.28963,0 c -0.71353,-0.0172 -1.2404,0.45863 -1.43007,0.90321 -0.20673,0.44455 -0.22379,0.8791 -0.2258,1.12897 v 0.17563 7.04999 h 1.07882 v -7.10015 l -0.025,-0.0251 v -0.10035 c -0.006,-0.16658 0.0301,-0.4807 0.12544,-0.67741 0.11742,-0.19368 0.16158,-0.283 0.47669,-0.30105 l 4.9927,0.0251 c 0.31511,0.0172 0.36228,0.0803 0.47669,0.27598 0.0983,0.1967 0.12945,0.51081 0.12544,0.67739 v 0.10036 0.0251 7.10018 h 1.05374 v -7.04999 -0.17563 c -0.003,-0.2499 -0.0181,-0.68543 -0.2258,-1.129 -0.18566,-0.44458 -0.71956,-0.92027 -1.43007,-0.90321 h -4.9927 z m 41.49706,0 c -0.5788,0.0828 -0.99164,0.48734 -1.15409,0.8781 -0.21074,0.44357 -0.22279,0.87712 -0.22579,1.129 v 0.20071 7.0249 h 1.05373 v -7.07506 -0.0251 -0.12543 c -0.005,-0.1696 0.024,-0.48372 0.12544,-0.67742 0.11039,-0.19568 0.16358,-0.25791 0.47669,-0.27596 h 3.91387 v -1.05375 h -3.91387 c -0.0888,-0.003 -0.19329,-0.0119 -0.27598,0 z m -150.332769,0.0752 v 7.0249 c -0.0032,0.0321 0,0.10938 0,0.20071 0.0016,0.24887 0.01614,0.68443 0.2258,1.12901 0.184654,0.43553 0.690447,0.87809 1.37989,0.87809 h 0.05018 9.207631 c 0.713529,0.018 1.2414,-0.43352 1.430068,-0.87809 0.206733,-0.44458 0.223793,-0.88014 0.225801,-1.12901 v -0.20071 -7.0249 h -1.053735 v 7.07506 0.0251 0.12544 c 0.0032,0.16258 -0.02906,0.45762 -0.125444,0.65233 -0.117417,0.19468 -0.162576,0.28601 -0.47669,0.30107 h -4.039315 v -8.17899 h -1.053734 v 8.17899 h -4.114582 c -0.31311,-0.0151 -0.35827,-0.10639 -0.476689,-0.30107 -0.09835,-0.19471 -0.128456,-0.48975 -0.125445,-0.65233 v -0.12544 -0.0251 -7.07506 z m 15.755838,0 c -0.579117,0.0805 -0.989885,0.48559 -1.154091,0.87813 -0.209743,0.44354 -0.224796,0.8791 -0.2258,1.12897 v 0.17563 4.84217 0.20071 c 7.94e-4,0.24887 0.01614,0.68443 0.2258,1.12901 0.182648,0.43553 0.689444,0.87809 1.379891,0.87809 h 0.05018 5.218495 c 0.712525,0.018 1.241399,-0.43352 1.430068,-0.87809 0.20874,-0.44458 0.223793,-0.88014 0.2258,-1.12901 l -0.02505,-0.17563 v -4.86725 l 0.02505,-0.17563 c -0.0016,-0.24987 -0.0171,-0.68543 -0.2258,-1.12897 -0.188669,-0.44861 -0.717543,-0.89821 -1.430068,-0.87813 h -5.218495 c -0.08894,-0.003 -0.193244,-0.0114 -0.275977,0 z m 30.708831,0 c -0.579501,0.0805 -0.989883,0.48559 -1.154092,0.87813 -0.208737,0.44354 -0.246874,0.8791 -0.250888,1.12897 l 0.02506,0.17563 v 4.84217 l -0.02506,0.20071 c 0.004,0.24887 0.04215,0.68443 0.250888,1.12901 0.185659,0.43553 0.687438,0.87809 1.379892,0.87809 h 0.02506 5.243584 c 0.707507,0.018 1.216311,-0.43352 1.40498,-0.87809 0.207735,-0.44458 0.222787,-0.88014 0.225798,-1.12901 v -0.17563 -4.86725 -0.17563 c -0.0032,-0.24987 -0.01807,-0.68543 -0.225798,-1.12897 -0.188669,-0.44861 -0.697473,-0.89821 -1.40498,-0.87813 H 65.73152 c -0.08894,-0.003 -0.1681,-0.0114 -0.250888,0 z m 9.132363,0 v 1.05373 h 7.024897 c 0.31311,0.0172 0.36128,0.0813 0.476689,0.27599 0.09735,0.19468 0.130463,0.51382 0.125444,0.67738 v 0.12547 0.0251 4.91744 0.0251 0.12544 c 0.0032,0.16256 -0.0281,0.45762 -0.125444,0.6523 -0.115409,0.19468 -0.163579,0.28501 -0.476689,0.30107 h -5.619917 c -0.356261,-0.0151 -0.382355,-0.0993 -0.476689,-0.22579 -0.08129,-0.13449 -0.125444,-0.37735 -0.125444,-0.50179 v -0.0752 -0.0251 -1.93186 -0.0251 -0.12547 c 0,-0.16356 0.02609,-0.4817 0.125444,-0.67739 0.114406,-0.19468 0.162576,-0.25791 0.476689,-0.27598 h 5.619917 v -1.05373 h -5.619917 c -0.713528,-0.018 -1.238388,0.43354 -1.430068,0.87812 -0.207734,0.44556 -0.223792,0.8781 -0.2258,1.12898 v 0.20071 1.8315 0.15055 c 0.0016,0.22278 0.02714,0.62421 0.250888,1.02862 0.212754,0.41048 0.734605,0.76975 1.40498,0.75269 h 5.619917 0.05018 c 0.692454,0 1.196239,-0.44358 1.379889,-0.87813 0.207738,-0.44558 0.223795,-0.88011 0.225801,-1.129 v -0.20071 -4.84214 -0.17563 c -0.0016,-0.2499 -0.01807,-0.68543 -0.225801,-1.12901 -0.188666,-0.44759 -0.718545,-0.89717 -1.430067,-0.8781 h -7.024897 z m 40.945107,0 v 1.05373 h 7.04999 c 0.30909,0.0172 0.33518,0.0813 0.4516,0.27599 0.0983,0.19468 0.12544,0.51482 0.12544,0.67738 v 0.12547 0.0251 4.91744 0.0251 0.12544 c 0,0.16256 -0.0271,0.45762 -0.12544,0.6523 -0.11642,0.19468 -0.14251,0.28501 -0.4516,0.30107 h -5.64501 c -0.31411,-0.0161 -0.35927,-0.10639 -0.47669,-0.30107 -0.0963,-0.19568 -0.12544,-0.48974 -0.12544,-0.6523 v -0.12544 -0.0251 -1.65586 -0.0251 -0.0251 -0.10035 c -0.003,-0.16357 0.0291,-0.4817 0.12544,-0.67739 0.11742,-0.19468 0.16258,-0.25791 0.47669,-0.27599 h 5.64501 v -1.05372 h -5.64501 c -0.71052,-0.018 -1.2414,0.43354 -1.43007,0.87812 -0.20472,0.44556 -0.2258,0.8781 -0.2258,1.12898 v 0.20071 1.55551 0.20072 c 0.002,0.24889 0.021,0.68341 0.2258,1.129 0.18867,0.44357 0.71955,0.89617 1.43007,0.87812 h 5.64501 0.0251 c 0.68945,0 1.19624,-0.44357 1.37989,-0.87812 0.20774,-0.44559 0.22379,-0.88011 0.2258,-1.129 v -0.17561 -4.86725 -0.17563 c -0.002,-0.25088 -0.0181,-0.68442 -0.2258,-1.129 -0.18566,-0.4476 -0.69446,-0.89718 -1.40498,-0.8781 h -7.04998 z m 21.14996,0 v 1.05373 h 7.02489 c 0.31111,0.0172 0.36028,0.0813 0.47669,0.27599 0.0984,0.19468 0.12846,0.51482 0.12545,0.67738 v 0.12547 0.0251 4.91744 0.0251 0.12544 c 0.003,0.16256 -0.0271,0.45762 -0.12545,0.6523 -0.11641,0.19468 -0.16558,0.28501 -0.47669,0.30107 h -5.645 c -0.35325,-0.0151 -0.38637,-0.0993 -0.47669,-0.22579 -0.0833,-0.13449 -0.10036,-0.37735 -0.10036,-0.50179 v -0.0752 -0.0251 -1.93186 -0.0251 -0.0251 -0.10036 c 0,-0.16359 0.0231,-0.4817 0.12545,-0.67741 0.1134,-0.19468 0.13748,-0.25791 0.4516,-0.27596 h 5.645 v -1.05373 h -5.645 c -0.71353,-0.018 -1.21631,0.43352 -1.40498,0.8781 -0.20774,0.44559 -0.2238,0.87813 -0.2258,1.129 v 0.20072 1.8315 0.15052 c 0,0.22278 0.0271,0.6232 0.25089,1.02864 0.21175,0.40844 0.7346,0.76973 1.40498,0.75266 h 5.61991 0.0502 c 0.68643,0 1.19624,-0.44357 1.37989,-0.87809 0.20673,-0.44559 0.22379,-0.88014 0.2258,-1.12901 v -0.17563 -4.86725 -0.17563 c -0.002,-0.25088 -0.0191,-0.68442 -0.2258,-1.12897 -0.18967,-0.4476 -0.71955,-0.89721 -1.43007,-0.87813 z m 11.49072,0 c -0.57977,0.0824 -0.99076,0.48649 -1.15409,0.87813 -0.12745,0.27294 -0.17763,0.52884 -0.20071,0.75266 h -0.0251 v 0.20071 0.1756 0.17563 4.26511 0.17563 c 0.004,0.25088 0.019,0.66035 0.2258,1.10392 0.18466,0.43755 0.69045,0.90319 1.37989,0.90319 h 0.0502 5.44429 v -1.05373 h -5.44429 c -0.3111,-0.0172 -0.35927,-0.10637 -0.47669,-0.30107 -0.0984,-0.19468 -0.12745,-0.48472 -0.12544,-0.65231 v -0.12544 -0.0251 -4.61637 c 0.0131,-0.16457 0.0562,-0.37933 0.12544,-0.52687 0.11742,-0.19367 0.16559,-0.25791 0.47669,-0.27596 h 5.61992 c 0.31411,0.018 0.35927,0.0823 0.47669,0.27596 0.0983,0.19672 0.12745,0.51382 0.12544,0.67742 v 0.12544 0.0251 7.92808 0.0251 0.12544 c 0.002,0.1656 -0.0271,0.48273 -0.12544,0.67741 -0.11742,0.19367 -0.16258,0.25892 -0.47669,0.27599 h -5.04287 v 1.05372 h 5.04287 0.0502 c 0.68845,0 1.19323,-0.44357 1.37989,-0.87812 0.20674,-0.44656 0.22179,-0.87911 0.2258,-1.129 v -0.17561 -7.87791 -0.17563 c 0,-0.2499 -0.0191,-0.68443 -0.2258,-1.12901 -0.18967,-0.44759 -0.71754,-0.89717 -1.43006,-0.8781 h -5.61992 c -0.0891,-0.003 -0.19316,-0.0119 -0.27598,0 z m 10.66279,0 c -0.5784,0.0811 -0.98637,0.48649 -1.15409,0.87813 -0.20473,0.44354 -0.22279,0.8791 -0.2258,1.12897 v 0.17563 4.84217 0.20071 c 0,0.24887 0.0211,0.68342 0.2258,1.12901 0.18967,0.44357 0.72055,0.89617 1.43007,0.87809 h 7.02489 v -1.05372 h -7.02489 c -0.31311,-0.0161 -0.35928,-0.10637 -0.47669,-0.30107 -0.0953,-0.19468 -0.12946,-0.48975 -0.12545,-0.65231 v -0.12544 -0.0251 -4.91744 -0.0251 -0.0251 -0.10036 c -0.004,-0.16158 0.0301,-0.48069 0.12545,-0.67741 0.11741,-0.19468 0.16358,-0.2589 0.47669,-0.27596 h 5.61991 c 0.3111,0.0172 0.35928,0.0813 0.47669,0.27596 0.0843,0.17261 0.11943,0.42852 0.12545,0.60214 v 1.88166 0.0251 0.0251 0.0502 c 0.002,0.10236 -0.0281,0.29405 -0.10036,0.40142 -0.0772,0.0993 -0.12946,0.18667 -0.50178,0.20071 h -5.61991 v 1.07884 h 5.61991 0.0502 c 0.63425,0 1.13201,-0.32014 1.3548,-0.70249 0.23082,-0.38436 0.24889,-0.76872 0.25089,-0.97848 v -0.15053 -1.58059 -0.17563 c -0.002,-0.25088 -0.0181,-0.68442 -0.2258,-1.129 -0.18666,-0.4476 -0.72055,-0.89718 -1.43007,-0.8781 h -5.61991 c -0.0887,-0.003 -0.19335,-0.0116 -0.27598,0 z m -123.813794,1.05373 h 5.218495 c 0.310099,0.0169 0.36128,0.0803 0.476689,0.27599 0.09534,0.19468 0.127452,0.51382 0.125445,0.67738 l -0.02505,0.12547 v 0.0251 4.91744 0.0251 l 0.02505,0.12544 c 0.0016,0.16256 -0.03011,0.45762 -0.125445,0.6523 -0.115409,0.19468 -0.16659,0.28602 -0.476689,0.30107 h -5.218495 c -0.312105,-0.0151 -0.360276,-0.10639 -0.476689,-0.30107 -0.09634,-0.19468 -0.128455,-0.48974 -0.125444,-0.6523 v -0.12544 -0.0251 -4.91744 -0.0251 -0.12547 c -0.0032,-0.16356 0.02906,-0.4827 0.125444,-0.67738 0.116413,-0.19569 0.162576,-0.25892 0.476689,-0.27599 z m 30.683742,0 h 5.243584 c 0.3101,0.0169 0.335187,0.0803 0.451602,0.27599 0.09835,0.19468 0.127449,0.51382 0.125444,0.67738 v 0.12547 0.0251 4.91744 0.0251 0.12544 c 0.0016,0.16256 -0.02706,0.45762 -0.125444,0.6523 -0.116415,0.19468 -0.141502,0.28602 -0.451602,0.30107 h -5.243584 c -0.313108,-0.0151 -0.334184,-0.10639 -0.451599,-0.30107 -0.09534,-0.19468 -0.128455,-0.48974 -0.125446,-0.6523 v -0.12544 -0.0251 -4.91744 -0.0251 -0.12547 c -0.0032,-0.16356 0.03011,-0.4827 0.125446,-0.67738 0.117415,-0.19569 0.138491,-0.25892 0.451599,-0.27599 z"
       id="path4"
       style="stroke-width:0.264583" />
    <path
       d="m 172.00701,122.60772 c -1.16914,-0.94134 -3.385,-1.15108 -4.66654,-1.19223 -0.59109,-0.0161 -0.9875,0 -0.9875,0 h -30.08763 c 0,0 -0.91223,-0.0703 -2.02819,0 -1.08685,0.0703 -2.36638,0.27397 -3.16722,0.8179 -2.03521,1.37186 -2.29112,3.61281 -2.29112,5.64601 v 25.83054 h 7.48653 v -22.67837 c 0,-3.25453 2.78788,-2.89827 2.78788,-2.89827 h 8.6908 v 25.54553 h 7.13529 V 128.1333 h 8.89352 c 2.39448,0 2.57211,2.08238 2.58014,2.54903 v 0.0974 22.93026 h 7.49256 v -25.57664 -0.18164 c -0.011,-0.79683 -0.15556,-3.99115 -1.83852,-5.34394 m -63.30535,-1.19223 c -1.08886,0.0703 -2.36839,0.27397 -3.17124,0.8179 -2.03521,1.37186 -2.28811,3.61281 -2.28811,5.64601 v 25.83054 h 7.48553 v -22.67837 c 0,-3.25453 2.78888,-2.89827 2.78888,-2.89827 h 9.9312 v -6.71781 h -12.72008 c 0,0 -0.91223,-0.0703 -2.02618,0 m -19.078615,22.64927 c 0,3.25353 -2.786878,2.89928 -2.786878,2.89928 H 76.611932 c -2.390471,0 -2.571113,-2.08539 -2.57914,-2.55406 v -0.0933 -22.93528 H 66.54325 v 25.58267 0.18164 c 0.009,0.7908 0.154546,3.98914 1.837513,5.34293 1.168138,0.94034 3.382989,1.15109 4.66453,1.19022 0.592098,0.019 0.987499,0 0.987499,0 h 15.590253 c 0,0 0.913235,0.0723 2.026179,0 1.088858,-0.0693 2.367391,-0.27597 3.170235,-0.8179 2.033206,-1.37487 2.291119,-3.60979 2.291119,-5.645 v -25.83456 h -7.487533 z m -37.085431,9.61407 h 7.486533 v -45.9388 h -7.486533 z m -6.646556,-14.74024 c 0,0 0.06824,-2.37341 -1.41401,-3.39804 -1.364837,-0.93531 -3.326791,-0.93531 -3.326791,-0.93531 H 27.516942 c 0,0 -2.052274,0.13749 -2.052274,-2.05228 v -2.30015 c 0,0 -0.18064,-2.42961 2.428607,-2.42961 h 17.679656 v -6.44183 H 26.445143 c 0,0 -3.169231,-0.0432 -4.427691,0.2549 -1.665904,0.3944 -3.482342,1.24743 -3.482342,5.03686 v 9.14139 c 0,4.9646 4.732773,4.44375 4.732773,4.44375 H 35.97592 c 3.011673,0 2.797915,2.22388 2.797915,2.22388 v 2.19779 c 0,2.9053 -3.292669,2.44266 -3.292669,2.44266 H 18.53511 v 6.55623 h 21.950793 c 0,0 2.874186,0.0983 4.19587,-1.42806 1.323691,-1.52641 1.209285,-4.03229 1.209285,-4.03229 z"
       id="path6"
       style="stroke-width:0.264583" />
  </g>
</svg>
