<?xml version="1.0" encoding="UTF-8" standalone="no"?>
<!-- Created with Inkscape (http://www.inkscape.org/) -->

<svg
   width="140.76724mm"
   height="70.504433mm"
   viewBox="0 0 140.76724 70.504433"
   version="1.1"
   id="svg26"
   inkscape:version="1.1.2 (0a00cf5339, 2022-02-04)"
   sodipodi:docname="slurm-separate-icon.svg"
   xmlns:inkscape="http://www.inkscape.org/namespaces/inkscape"
   xmlns:sodipodi="http://sodipodi.sourceforge.net/DTD/sodipodi-0.dtd"
   xmlns="http://www.w3.org/2000/svg"
   xmlns:svg="http://www.w3.org/2000/svg">
  <sodipodi:namedview
     id="namedview28"
     pagecolor="#ffffff"
     bordercolor="#666666"
     borderopacity="1.0"
     inkscape:pageshadow="2"
     inkscape:pageopacity="0.0"
     inkscape:pagecheckerboard="0"
     inkscape:document-units="mm"
     showgrid="false"
     inkscape:zoom="0.53362093"
     inkscape:cx="267.98049"
     inkscape:cy="524.71705"
     inkscape:window-width="1920"
     inkscape:window-height="1005"
     inkscape:window-x="0"
     inkscape:window-y="25"
     inkscape:window-maximized="1"
     inkscape:current-layer="layer1" />
  <defs
     id="defs23" />
  <g
     inkscape:label="Layer 1"
     inkscape:groupmode="layer"
     id="layer1"
     transform="translate(-34.14659,-9.5896433)">
    <path
       fill="#42afeb"
       d="m 99.63816,9.5896433 c -2.65575,0 -4.80798,2.1368357 -4.80798,4.7735797 v 0 9.187932 c 0,2.63489 2.15223,4.774282 4.80798,4.774282 v 0 h 9.54968 c 2.65576,0 4.81149,-2.139392 4.81149,-4.774282 v 0 -9.187932 c 0,-2.636744 -2.15573,-4.7735797 -4.81149,-4.7735797 v 0 z m 23.47268,14.5379217 c -1.99485,0 -3.61266,1.634136 -3.61266,3.644482 v 0 7.011101 c 0,2.01244 1.61781,3.645411 3.61266,3.645411 v 0 h 7.17497 c 1.99509,0 3.61149,-1.632971 3.61149,-3.645411 v 0 -7.011101 c 0,-2.010346 -1.6164,-3.644482 -3.61149,-3.644482 v 0 z m -44.57088,0 c -1.99416,0 -3.61219,1.634136 -3.61219,3.644482 v 0 7.011101 c 0,2.01244 1.61803,3.645411 3.61219,3.645411 v 0 h 7.17449 c 1.99392,0 3.61266,-1.632971 3.61266,-3.645411 v 0 -7.011101 c 0,-2.010346 -1.61874,-3.644482 -3.61266,-3.644482 v 0 z m 21.0982,8.041852 c -2.65575,0 -4.80798,2.135674 -4.80798,4.774049 v 0 9.187235 c 0,2.636285 2.15223,4.774978 4.80798,4.774978 v 0 h 9.54968 c 2.65576,0 4.81149,-2.138693 4.81149,-4.774978 v 0 -9.187235 c 0,-2.638375 -2.15573,-4.774049 -4.81149,-4.774049 v 0 z m 41.92989,4.307155 c -1.4836,0 -2.68619,1.213276 -2.68619,2.711622 v 0 5.215601 c 0,1.495086 1.20259,2.709291 2.68619,2.709291 v 0 h 5.33772 c 1.48269,0 2.6862,-1.214205 2.6862,-2.709291 v 0 -5.215601 c 0,-1.498346 -1.20351,-2.711622 -2.6862,-2.711622 v 0 z m -79.41222,0 c -1.48316,0 -2.68713,1.213276 -2.68713,2.711622 v 0 5.215601 c 0,1.495086 1.20397,2.709291 2.68713,2.709291 v 0 h 5.33607 c 1.48503,0 2.6876,-1.214205 2.6876,-2.709291 v 0 -5.215601 c 0,-1.498346 -1.20257,-2.711622 -2.6876,-2.711622 v 0 z m 60.95501,5.489276 c -1.99485,0 -3.61266,1.631574 -3.61266,3.642153 v 0 7.013427 c 0,2.010814 1.61781,3.643085 3.61266,3.643085 v 0 h 7.17497 c 1.99509,0 3.61149,-1.632271 3.61149,-3.643085 v 0 -7.013427 c 0,-2.010579 -1.6164,-3.642153 -3.61149,-3.642153 v 0 z m -44.57088,0 c -1.99416,0 -3.61219,1.631574 -3.61219,3.642153 v 0 7.013427 c 0,2.010814 1.61803,3.643085 3.61219,3.643085 v 0 h 7.17449 c 1.99392,0 3.61266,-1.632271 3.61266,-3.643085 v 0 -7.013427 c 0,-2.010579 -1.61874,-3.642153 -3.61266,-3.642153 v 0 z m 63.02809,8.834966 c -1.4836,0 -2.68619,1.21258 -2.68619,2.709063 v 0 5.215832 c 0,1.495325 1.20259,2.709762 2.68619,2.709762 v 0 h 5.33772 c 1.48269,0 2.6862,-1.214437 2.6862,-2.709762 v 0 -5.215832 c 0,-1.496483 -1.20351,-2.709063 -2.6862,-2.709063 v 0 z m -79.41222,0 c -1.48316,0 -2.68713,1.21258 -2.68713,2.709063 v 0 5.215832 c 0,1.495325 1.20397,2.709762 2.68713,2.709762 v 0 h 5.33607 c 1.48503,0 2.6876,-1.214437 2.6876,-2.709762 v 0 -5.215832 c 0,-1.496483 -1.20257,-2.709063 -2.6876,-2.709063 v 0 z m 37.48233,3.751905 c -2.65575,0 -4.80798,2.137762 -4.80798,4.774748 v 0 9.187929 c 0,2.636517 2.15223,4.772657 4.80798,4.772657 v 0 h 9.54968 c 2.65576,0 4.81149,-2.13614 4.81149,-4.772657 v 0 -9.187929 c 0,-2.636986 -2.15573,-4.774748 -4.81149,-4.774748 v 0 z m 57.70418,3.925361 c -1.10327,0 -1.99579,0.901703 -1.99579,2.01244 v 0 3.871647 c 0,1.110737 0.89252,2.010815 1.99579,2.010815 v 0 h 3.96186 c 1.09999,0 1.9918,-0.900078 1.9918,-2.010815 v 0 -3.871647 c 0,-1.110737 -0.89181,-2.01244 -1.9918,-2.01244 v 0 z m -109.58399,0 c -1.10165,0 -1.99415,0.901703 -1.99415,2.01244 v 0 3.871647 c 0,1.110737 0.8925,2.010815 1.99415,2.010815 v 0 h 3.9602 c 1.10235,0 1.99462,-0.900078 1.99462,-2.010815 v 0 -3.871647 c 0,-1.110737 -0.89227,-2.01244 -1.99462,-2.01244 v 0 z m 75.35249,1.329304 c -1.99485,0 -3.61266,1.63041 -3.61266,3.641455 v 0 7.01203 c 0,2.012442 1.61781,3.644246 3.61266,3.644246 v 0 h 7.17497 c 1.99509,0 3.61149,-1.631804 3.61149,-3.644246 v 0 -7.01203 c 0,-2.011045 -1.6164,-3.641455 -3.61149,-3.641455 v 0 z m -44.57088,0 c -1.99416,0 -3.61219,1.63041 -3.61219,3.641455 v 0 7.01203 c 0,2.012442 1.61803,3.644246 3.61219,3.644246 v 0 h 7.17449 c 1.99392,0 3.61266,-1.631804 3.61266,-3.644246 v 0 -7.01203 c 0,-2.011045 -1.61874,-3.641455 -3.61266,-3.641455 v 0 z m 63.02809,5.424633 c -1.4836,0 -2.68619,1.215832 -2.68619,2.713712 v 0 5.214438 c 0,1.49811 1.20259,2.709293 2.68619,2.709293 v 0 h 5.33772 c 1.48269,0 2.6862,-1.211183 2.6862,-2.709293 v 0 -5.214438 c 0,-1.49788 -1.20351,-2.713712 -2.6862,-2.713712 v 0 z m -79.41222,0 c -1.48316,0 -2.68713,1.215832 -2.68713,2.713712 v 0 5.214438 c 0,1.49811 1.20397,2.709293 2.68713,2.709293 v 0 h 5.33607 c 1.48503,0 2.6876,-1.211183 2.6876,-2.709293 v 0 -5.214438 c 0,-1.49788 -1.20257,-2.713712 -2.6876,-2.713712 v 0 z m 95.18651,5.03796 c -1.10327,0 -1.99579,0.900772 -1.99579,2.011508 v 0 3.871651 c 0,1.108638 0.89252,2.012437 1.99579,2.012437 v 0 h 3.96186 c 1.09999,0 1.9918,-0.903799 1.9918,-2.012437 v 0 -3.871651 c 0,-1.110736 -0.89181,-2.011508 -1.9918,-2.011508 v 0 z m -109.58399,0 c -1.10165,0 -1.99415,0.900772 -1.99415,2.011508 v 0 3.871651 c 0,1.108638 0.8925,2.012437 1.99415,2.012437 v 0 h 3.9602 c 1.10235,0 1.99462,-0.903799 1.99462,-2.012437 v 0 -3.871651 c 0,-1.110736 -0.89227,-2.011508 -1.99462,-2.011508 v 0 z m 122.66367,3.868627 c -0.83161,0 -1.50727,0.679413 -1.50727,1.517875 v 0 2.920883 c 0,0.835901 0.67566,1.516711 1.50727,1.516711 v 0 h 2.9883 c 0.82835,0 1.50352,-0.68081 1.50352,-1.516711 v 0 -2.920883 c 0,-0.838462 -0.67517,-1.517875 -1.50352,-1.517875 v 0 z m -134.76957,0 c -0.83115,0 -1.50586,0.679413 -1.50586,1.517875 v 0 2.920883 c 0,0.835901 0.67471,1.516711 1.50586,1.516711 v 0 h 2.98643 c 0.83138,0 1.50422,-0.68081 1.50422,-1.516711 v 0 -2.920883 c 0,-0.838462 -0.67284,-1.517875 -1.50422,-1.517875 v 0 z"
       id="path2"
       style="stroke-width:0.264583" />
  </g>
</svg>
